<svg xmlns="http://www.w3.org/2000/svg" viewBox="0 0 345.74 230.66"><defs><style>.cls-1{fill:none;stroke:#c9caca;}.cls-1,.cls-2,.cls-24{stroke-miterlimit:10;}.cls-2{fill:#ddf0fb;stroke:#399fda;}.cls-3,.cls-4{fill:#a87f7b;}.cls-12,.cls-13,.cls-15,.cls-16,.cls-18,.cls-19,.cls-21,.cls-22,.cls-23,.cls-4,.cls-5,.cls-6,.cls-7,.cls-8,.cls-9{fill-rule:evenodd;}.cls-10,.cls-5{fill:#040000;}.cls-6{fill:#f8cdc9;}.cls-7{fill:#fad2b1;}.cls-8{fill:#8b6360;}.cls-9{fill:#fff;}.cls-11,.cls-12{fill:#bd9260;}.cls-13{fill:#875e2c;}.cls-14,.cls-15{fill:#f39917;}.cls-16{fill:#fce5c2;}.cls-17,.cls-18{fill:#359dd9;}.cls-19{fill:#e6e6e5;}.cls-20,.cls-21{fill:#b8601f;}.cls-22{fill:#934128;}.cls-23{fill:#602c16;}.cls-24{fill:#f8f3de;stroke:#f8b62d;}</style></defs><title>dog-phylo</title><g id="图层_2" data-name="图层 2"><g id="图层_1-2" data-name="图层 1"><line class="cls-1" x1="63.96" y1="111.25" x2="99.15" y2="168.66"/><line class="cls-1" x1="63.96" y1="111.25" x2="28.77" y2="168.59"/><line class="cls-1" x1="283.12" y1="111.25" x2="316.85" y2="168.66"/><line class="cls-1" x1="283.12" y1="111.25" x2="246.47" y2="168.59"/><line class="cls-1" x1="173.62" y1="23.6" x2="283.12" y2="111.25"/><line class="cls-1" x1="173.62" y1="23.6" x2="63.96" y2="111.25"/><line class="cls-1" x1="173.62" y1="23.6" x2="174.74" y2="186.93"/><circle class="cls-2" cx="173.24" cy="23.6" r="23.1"/><path class="cls-3" d="M8.29,228.2a.73.73,0,0,1,.53.22A.72.72,0,0,1,9,229a.54.54,0,0,1,0,.22,1.89,1.89,0,0,1-.09.21,2.56,2.56,0,0,1-2.21,1.26,2.45,2.45,0,0,1-1-.19,3.18,3.18,0,0,1-.81-.54,2.55,2.55,0,0,1-.56-.81,2.47,2.47,0,0,1-.21-1V226a2.47,2.47,0,0,1,.19-1,2.88,2.88,0,0,1,.55-.82,2.73,2.73,0,0,1,.81-.56,2.38,2.38,0,0,1,1-.21,2.51,2.51,0,0,1,1.27.35,2.48,2.48,0,0,1,1,1A.68.68,0,0,1,9,225a.52.52,0,0,1,0,.21.73.73,0,0,1-.22.54.74.74,0,0,1-.54.23.67.67,0,0,1-.41-.13,1.46,1.46,0,0,1-.28-.32,1,1,0,0,0-.89-.5,1.1,1.1,0,0,0-.4.08,1,1,0,0,0-.32.22,1.09,1.09,0,0,0-.23.33,1,1,0,0,0-.08.41v2.07a.9.9,0,0,0,.08.4,1,1,0,0,0,.23.33.87.87,0,0,0,.32.22.92.92,0,0,0,.4.08,1,1,0,0,0,.52-.13,1.16,1.16,0,0,0,.37-.36,1.72,1.72,0,0,1,.26-.32.66.66,0,0,1,.44-.12Z"/><path class="cls-3" d="M13.85,223.47a.76.76,0,0,1,.53.22.68.68,0,0,1,.24.54v5.67a.67.67,0,0,1-.06.28.81.81,0,0,1-.17.24.9.9,0,0,1-.26.17.75.75,0,0,1-1-.69v-2.07H11.15v2.07a.75.75,0,0,1-.77.75.72.72,0,0,1-.52-.21.71.71,0,0,1-.23-.54v-5.67a.66.66,0,0,1,.24-.55.76.76,0,0,1,.51-.21.77.77,0,0,1,.77.76v2.07H13.1v-2.07a.79.79,0,0,1,.75-.76Z"/><path class="cls-3" d="M16.07,223.47a.72.72,0,0,1,.53.23.75.75,0,0,1,.22.53v5.67a.73.73,0,0,1-.22.53.76.76,0,0,1-1.07,0,.69.69,0,0,1-.22-.53v-5.67a.71.71,0,0,1,.22-.53.73.73,0,0,1,.54-.23Z"/><path class="cls-3" d="M21.74,223.47a.76.76,0,0,1,.54.22.68.68,0,0,1,.24.54v5.67a.67.67,0,0,1-.06.28.69.69,0,0,1-.18.24.74.74,0,0,1-.25.17.72.72,0,0,1-.29.06.77.77,0,0,1-.74-.75v-2.07H19v2.07a.75.75,0,0,1-.76.75.72.72,0,0,1-.52-.21.71.71,0,0,1-.23-.54v-5.67a.66.66,0,0,1,.24-.55.76.76,0,0,1,.51-.21.77.77,0,0,1,.76.76v2.07h2v-2.07a.72.72,0,0,1,.23-.53.71.71,0,0,1,.51-.23Z"/><path class="cls-3" d="M25.72,230.66a2.49,2.49,0,0,1-1-.2,2.41,2.41,0,0,1-.79-.54,2.88,2.88,0,0,1-.55-.82,3,3,0,0,1-.23-1v-3.86a.77.77,0,0,1,.22-.54.74.74,0,0,1,.55-.22.71.71,0,0,1,.53.22.76.76,0,0,1,.21.54v3.86a.91.91,0,0,0,.09.41,1.11,1.11,0,0,0,.22.34,1,1,0,0,0,.33.22,1,1,0,0,0,.4.08,1.1,1.1,0,0,0,.4-.08,1,1,0,0,0,.33-.22,1.13,1.13,0,0,0,.23-.34,1.07,1.07,0,0,0,.08-.41v-3.86a.77.77,0,0,1,.22-.54.74.74,0,0,1,.55-.22.69.69,0,0,1,.53.22.73.73,0,0,1,.22.54v3.86a2.69,2.69,0,0,1-.21,1,2.66,2.66,0,0,1-.54.82,2.73,2.73,0,0,1-.81.56,2.39,2.39,0,0,1-1,.21Z"/><path class="cls-3" d="M33.41,225.7v0h0v4.17a.75.75,0,0,1-.75.76.75.75,0,0,1-.77-.76v-1.31H30.43v1.31a.73.73,0,0,1-.22.54.8.8,0,0,1-.56.22.71.71,0,0,1-.52-.22.73.73,0,0,1-.22-.54v-4.17h0v0a2.12,2.12,0,0,1,.18-.87,2.2,2.2,0,0,1,.49-.71,2.34,2.34,0,0,1,.71-.48,2.26,2.26,0,0,1,2.46.48,2.34,2.34,0,0,1,.48.71,2.12,2.12,0,0,1,.18.87Zm-1.51,0a.72.72,0,0,0-.21-.52.73.73,0,0,0-.53-.22.7.7,0,0,0-.52.22.72.72,0,0,0-.21.52v1.34H31.9v-1.34Z"/><path class="cls-3" d="M38.31,223.47a.76.76,0,0,1,.53.22.68.68,0,0,1,.24.54v5.67a.67.67,0,0,1-.06.28.81.81,0,0,1-.17.24.9.9,0,0,1-.26.17.75.75,0,0,1-1-.69v-2.07h-2v2.07a.75.75,0,0,1-.77.75.72.72,0,0,1-.52-.21.75.75,0,0,1-.23-.54v-5.67a.66.66,0,0,1,.24-.55.76.76,0,0,1,.51-.21.77.77,0,0,1,.77.76v2.07h2v-2.07a.79.79,0,0,1,.75-.76Z"/><path class="cls-3" d="M42.28,230.66a2.4,2.4,0,0,1-1-.2,2.46,2.46,0,0,1-.8-.54,3.07,3.07,0,0,1-.54-.82,2.62,2.62,0,0,1-.23-1v-3.86a.73.73,0,0,1,.22-.54.76.76,0,0,1,1.07,0,.76.76,0,0,1,.21.54v3.86a.91.91,0,0,0,.09.41,1.11,1.11,0,0,0,.22.34,1.19,1.19,0,0,0,.33.22,1,1,0,0,0,.8,0,1.11,1.11,0,0,0,.34-.22,1.33,1.33,0,0,0,.22-.34.91.91,0,0,0,.09-.41v-3.86a.76.76,0,0,1,.21-.54.74.74,0,0,1,.55-.22.69.69,0,0,1,.53.22.73.73,0,0,1,.22.54v3.86a2.49,2.49,0,0,1-.2,1,3.07,3.07,0,0,1-.54.82,2.73,2.73,0,0,1-.81.56,2.47,2.47,0,0,1-1,.21Z"/><path class="cls-3" d="M50,225.7l0,0h0v4.17a.75.75,0,0,1-.76.76.75.75,0,0,1-.76-.76v-1.31H47v1.31a.73.73,0,0,1-.22.54.8.8,0,0,1-.55.22.73.73,0,0,1-.53-.22.77.77,0,0,1-.22-.54v-4.17h0v0a2.12,2.12,0,0,1,.18-.87,2.37,2.37,0,0,1,.49-.71,2.19,2.19,0,0,1,1.58-.65,2.38,2.38,0,0,1,.88.17,2.26,2.26,0,0,1,1.19,1.19,2,2,0,0,1,.18.87Zm-1.5,0a.73.73,0,0,0-.22-.52.71.71,0,0,0-.53-.22.67.67,0,0,0-.51.22.69.69,0,0,0-.22.52v1.34h1.48v-1.34Z"/><path class="cls-4" d="M27.07,215.16a27.08,27.08,0,1,1,27.07-27.07,27.07,27.07,0,0,1-27.07,27.07Z"/><path class="cls-5" d="M19.49,185.15q4.67-14.7,4.66-14.7Q14.93,158.69,7.73,155.5q-1.87,16.31,1.23,24,7.4,6.6,10.53,5.64Z"/><path class="cls-6" d="M11.26,179.48c-2.14-6.1-2.15-14.65-1.62-22,4.93,3.67,9.65,9,13.24,13.42l-.42,1.34a22.66,22.66,0,0,0-7,10.59,52.18,52.18,0,0,1-4.25-3.39Z"/><path class="cls-5" d="M41.65,187Q37,172.26,37,172.26q9.23-11.76,16.42-14.95,1.88,16.31-1.23,24-7.4,6.6-10.53,5.64Z"/><path class="cls-7" d="M26.21,214.18c-1.3-.19-2.82-8.74-4.09-8.86s-4.05.57-5.18.36c-2.85-1-5.5-.26-7.89-.48l-4.84-3.61c-3.08-2.29-3.16-4.81-3-4.67.43.54,2.06-.41,2.25-.54,1.94-1.29,1.38-4.86-.43-4.41,3-2.07,6.17-2.13,7.81-3.46S9.58,174.59,24.67,171.9c14.83-1.63,24.17,7.37,22.27,25.06.54.41,1.86,5.06,2.25,6.43-6.57,9.37-12.87,12.3-23,10.79Z"/><path class="cls-8" d="M35.82,212.8c-.76-2.34-4.78-9.36-1.58-14.5.31-.51.64-1,.91-1.56a18,18,0,0,1,1.06-2.35c.13-.2.14-.29.33-.39a3.49,3.49,0,0,1,1.19-.49c1.29-2.59,2-3.64-5.15-1.64-.79.22-3.55,2.7-4.49,2.7-3,0-6-1-9.69-.9-4.86.15-13.91,4.25-16.84,4.22-1.34,0,.67-1.3,1.27-3.5q-1.84-3.88,8.41-5.87a22.63,22.63,0,0,1,.53-4.43,19.52,19.52,0,0,1,.83-3.16,16.53,16.53,0,0,1,7.46-7.71,21.28,21.28,0,0,1,4.61-1.32c14.83-1.63,24.17,7.37,22.27,25.06.54.41,1.77,4.71,2.15,6.09-3.52,5.32-6.32,8.76-13.27,9.75Z"/><path class="cls-7" d="M26.94,183.12a2.16,2.16,0,0,1-3.05,0c-.41-.62.18-1.11.68-1.39,1.25-.72,1.25-1,2.52-.75.34.07.16.77.17,1.08a1.44,1.44,0,0,1-.32,1Z"/><path class="cls-6" d="M49.88,181.29c2.14-6.1,2.15-14.65,1.62-22-4.93,3.67-9.65,9-13.24,13.42l.42,1.34a22.71,22.71,0,0,1,7,10.59,50.11,50.11,0,0,0,4.25-3.39Z"/><path class="cls-5" d="M26.08,191.09a3.47,3.47,0,1,1,3.46-3.46,3.46,3.46,0,0,1-3.46,3.46Z"/><path class="cls-9" d="M25.21,188.45A1.47,1.47,0,1,1,26.67,187a1.47,1.47,0,0,1-1.46,1.47Z"/><path class="cls-9" d="M27.28,189.92a.84.84,0,1,1,.85-.84.84.84,0,0,1-.85.84Z"/><path class="cls-5" d="M15.05,189.65a3.47,3.47,0,1,1,3.47-3.47,3.46,3.46,0,0,1-3.47,3.47Z"/><path class="cls-9" d="M14.19,187a1.46,1.46,0,1,1,1.46-1.46A1.46,1.46,0,0,1,14.19,187Z"/><path class="cls-9" d="M16.26,188.48a.85.85,0,1,1,.84-.84.85.85,0,0,1-.84.84Z"/><path class="cls-7" d="M15,182.06a2.17,2.17,0,0,0,3,0c.41-.63-.18-1.11-.68-1.4-1.25-.71-1.25-1-2.52-.75-.34.08-.16.77-.17,1.08a1.46,1.46,0,0,0,.32,1.05Z"/><path class="cls-5" d="M24.5,212.7a4.9,4.9,0,0,0,1.06,3.16c.6,1.37,1,1.24,2.52,1.54,10.63.45,14.16-.79,22.44-10-.18-2.12-.2-2.91-1.91-4.1Q40.12,215,24.5,212.7Z"/><path class="cls-10" d="M10.6,188.08C10,168,43,163.94,47.83,187.67a20.55,20.55,0,0,1,0,8.52c.62,1.15,1.2,5.21.93,5.66-.45.74-1.12-4.42-2-5,.84-9.23-1.79-17.4-8.75-22.26a20.67,20.67,0,0,0-13.71-2C9.51,176.91,13,187.47,11.06,189c-1.64,1.34-4.82,1.39-7.82,3.46,1.82-.45,2.38,3.12.44,4.41-.19.13-1.82,1.08-2.25.54-.11-.13.31,1.77,3.46,4,.52.36,5.71.13,8.68-1.42a3,3,0,0,1,1.81-1.32c-2.42,4.5-6.26,3.57-8.23,3.83,2,3,3.46,2.56,8.4,2.29l7.32-.23c.77,0,1.52,5.06,1.3,5.2s-1.13-4.44-1.48-4.48c-2.75-.36-14.08,2.65-16.7-2.38-.32-.61-1.5-.37-1.87-.68-3.31-2.7-4.25-4.23-4.07-7,.67-4.63,7.05-5.73,10.55-7.14Z"/><path class="cls-9" d="M27.16,213.91a4.48,4.48,0,0,0,1.11.2,3.68,3.68,0,0,0,1.05-.11c.07.36.14.72.22,1.07l.21,1.07a2.42,2.42,0,0,1-1,.19,3.28,3.28,0,0,1-1.13-.28L27.38,215c-.08-.35-.15-.71-.22-1.07Z"/><path class="cls-9" d="M31.09,214a4.61,4.61,0,0,0,1.09.12,3.66,3.66,0,0,0,1-.18l.21,1.07c.08.36.15.72.22,1.07a2.45,2.45,0,0,1-1,.26,3.22,3.22,0,0,1-1.11-.2c-.07-.36-.14-.72-.22-1.07L31.09,214Z"/><path class="cls-9" d="M34.62,213.88a4.11,4.11,0,0,0,1.05-.09,4.63,4.63,0,0,0,1-.41c.08.35.15.71.22,1.07s.15.71.22,1.07a3.06,3.06,0,0,1-1,.49,3,3,0,0,1-1.07,0c-.07-.36-.15-.72-.22-1.08l-.21-1.07Z"/><path class="cls-9" d="M38.19,212.88a4,4,0,0,0,1.06-.28,5,5,0,0,0,1-.58c.08.35.15.69.22,1s.15.68.22,1a3.35,3.35,0,0,1-1,.65,2.75,2.75,0,0,1-1.06.21c-.07-.35-.15-.69-.22-1s-.14-.69-.22-1Z"/><path class="cls-9" d="M41.67,211.25a4.51,4.51,0,0,0,.93-.47,6,6,0,0,0,.88-.76c.06.34.13.67.19,1s.13.66.19,1a3.93,3.93,0,0,1-.86.83,2.72,2.72,0,0,1-1,.4c-.06-.34-.12-.67-.19-1s-.13-.66-.19-1Z"/><path class="cls-9" d="M44.75,209a3.77,3.77,0,0,0,.81-.47,5.45,5.45,0,0,0,.76-.76c0,.34.11.67.16,1s.11.66.17,1a3.84,3.84,0,0,1-.75.83,2.23,2.23,0,0,1-.82.4c-.06-.33-.11-.67-.17-1s-.11-.66-.16-1Z"/><path class="cls-9" d="M47.42,206.71a2.77,2.77,0,0,0,.7-.47,5,5,0,0,0,.67-.75c.05.33.1.66.14,1l.15,1a3.79,3.79,0,0,1-.65.82,1.85,1.85,0,0,1-.72.4l-.15-1c0-.33-.09-.66-.14-1Z"/><path class="cls-11" d="M82.24,223.62a.77.77,0,0,1,.33.5.7.7,0,0,1-.13.57l-1.81,2.59v2.6a.76.76,0,0,1-1.3.54.72.72,0,0,1-.22-.54v-2.6l-1.81-2.59a.73.73,0,0,1-.12-.57.74.74,0,0,1,.88-.62.65.65,0,0,1,.47.32l1.34,1.91,1.32-1.91a.69.69,0,0,1,.49-.32.7.7,0,0,1,.56.12Z"/><path class="cls-11" d="M85.64,223.47a2.4,2.4,0,0,1,1,.19,2.78,2.78,0,0,1,.8.55A2.9,2.9,0,0,1,88,225a2.76,2.76,0,0,1,.23,1v2.07a3,3,0,0,1-.22,1,2.64,2.64,0,0,1-1.33,1.38,2.36,2.36,0,0,1-1,.21,2.44,2.44,0,0,1-1-.2,2.57,2.57,0,0,1-.8-.54,2.72,2.72,0,0,1-.56-.82,2.62,2.62,0,0,1-.23-1V226a2.68,2.68,0,0,1,.21-1,2.88,2.88,0,0,1,.55-.82,2.53,2.53,0,0,1,.81-.55,2.38,2.38,0,0,1,1-.21Zm0,5.67a1,1,0,0,0,.4-.08,1,1,0,0,0,.33-.22,1.36,1.36,0,0,0,.23-.34,1.07,1.07,0,0,0,.08-.41V226a1.06,1.06,0,0,0-.08-.4,1.14,1.14,0,0,0-.23-.33.83.83,0,0,0-.33-.22.87.87,0,0,0-.4-.08.94.94,0,0,0-.41.08,1,1,0,0,0-.33.22.83.83,0,0,0-.22.33.9.9,0,0,0-.08.4v2.07a1.05,1.05,0,0,0,.3.75,1,1,0,0,0,.74.3Z"/><path class="cls-11" d="M92.41,229.13a.74.74,0,0,1,.52.22.73.73,0,0,1,.22.54.72.72,0,0,1-.22.54.7.7,0,0,1-.52.22H89.58a.73.73,0,0,1-.54-.22.81.81,0,0,1-.23-.54v-5.66a.73.73,0,0,1,.22-.54.8.8,0,0,1,.55-.22.79.79,0,0,1,.53.22.74.74,0,0,1,.23.54v4.9Z"/><path class="cls-11" d="M98.44,229.36a.73.73,0,0,1,.22.54.75.75,0,0,1-.22.54.73.73,0,0,1-.54.22.76.76,0,0,1-.54-.22l-2.29-2.31v1.76a.75.75,0,0,1-.76.76.77.77,0,0,1-.54-.22.74.74,0,0,1-.23-.54v-5.67a.77.77,0,0,1,.77-.75.7.7,0,0,1,.54.22.73.73,0,0,1,.22.53V226l2.29-2.3a.76.76,0,0,1,.54-.22.76.76,0,0,1,.54,1.29l-2.3,2.3,2.3,2.3Z"/><path class="cls-11" d="M101.44,225a.58.58,0,0,0-.45.19.74.74,0,0,0-.2.49.65.65,0,0,0,.2.45.61.61,0,0,0,.45.18h.77a2.05,2.05,0,0,1,.8.17,2.35,2.35,0,0,1,1.18,1.17,2,2,0,0,1,.18.85,2.12,2.12,0,0,1-.17.83,2.11,2.11,0,0,1-1.15,1.15,2.15,2.15,0,0,1-.84.19h-2a.78.78,0,0,1-.55-.22.77.77,0,0,1-.21-.55.73.73,0,0,1,.22-.53.72.72,0,0,1,.54-.22h2a.7.7,0,0,0,.46-.19.63.63,0,0,0,.2-.46.59.59,0,0,0-.2-.47.71.71,0,0,0-.45-.2h-.78a2.32,2.32,0,0,1-.82-.18,2.29,2.29,0,0,1-.69-.45,2.2,2.2,0,0,1-.48-.68,2.08,2.08,0,0,1,0-1.67,2.33,2.33,0,0,1,.47-.7,2.62,2.62,0,0,1,.69-.49,2,2,0,0,1,.84-.18h2a.67.67,0,0,1,.52.22.87.87,0,0,1,.24.54.73.73,0,0,1-.21.54.74.74,0,0,1-.55.22Z"/><path class="cls-11" d="M109.21,223.47a.76.76,0,0,1,.53.22.68.68,0,0,1,.24.54v5.67a.67.67,0,0,1-.06.28.81.81,0,0,1-.17.24.9.9,0,0,1-.26.17.75.75,0,0,1-1-.69v-2.07h-1.95v2.07a.75.75,0,0,1-.77.75.72.72,0,0,1-.52-.21.71.71,0,0,1-.23-.54v-5.67a.66.66,0,0,1,.24-.55.76.76,0,0,1,.51-.21.77.77,0,0,1,.77.76v2.07h1.95v-2.07a.79.79,0,0,1,.75-.76Z"/><path class="cls-11" d="M111.43,223.47a.72.72,0,0,1,.53.23.75.75,0,0,1,.22.53v5.67a.73.73,0,0,1-.22.53.76.76,0,0,1-1.07,0,.69.69,0,0,1-.22-.53v-5.67a.71.71,0,0,1,.22-.53.73.73,0,0,1,.54-.23Z"/><path class="cls-11" d="M117.27,229.36a.73.73,0,0,1,.17.26.92.92,0,0,1,0,.28.93.93,0,0,1,0,.29.7.7,0,0,1-.17.25.71.71,0,0,1-.53.22.73.73,0,0,1-.54-.22l-1.84-1.84v1.29a.75.75,0,0,1-.23.55.77.77,0,0,1-.54.22.77.77,0,0,1-.75-.77V226a2.69,2.69,0,0,1,.75-1.79,2.77,2.77,0,0,1,.81-.55,2.44,2.44,0,0,1,2,0,2.7,2.7,0,0,1,.81.55,2.73,2.73,0,0,1,.56.81,2.38,2.38,0,0,1,.21,1,2.53,2.53,0,0,1-.44,1.45,2.67,2.67,0,0,1-1.17.95l.94.94ZM115.41,225a1,1,0,0,0-.42.08,1,1,0,0,0-.33.22,1,1,0,0,0-.22.33,1.06,1.06,0,0,0-.08.4,1,1,0,0,0,.31.73.86.86,0,0,0,.33.23,1,1,0,0,0,.41.09,1,1,0,0,0,1-1,1.06,1.06,0,0,0-.08-.4,1,1,0,0,0-.23-.33.83.83,0,0,0-.33-.22.91.91,0,0,0-.39-.08Z"/><path class="cls-11" d="M122.27,229.14a.69.69,0,0,1,.53.22.73.73,0,0,1,.22.53.75.75,0,0,1-.75.77h-3a.79.79,0,0,1-.53-.22.75.75,0,0,1-.23-.55v-5.66a.76.76,0,0,1,.22-.53.71.71,0,0,1,.54-.23h3a.69.69,0,0,1,.53.22.73.73,0,0,1,.22.54.75.75,0,0,1-.75.76H120v1.09h1.5a.7.7,0,0,1,.52.22.76.76,0,0,1-.52,1.3H120v1.54Z"/><path class="cls-12" d="M100.08,215.19a27.08,27.08,0,1,1,27.08-27.07,27.07,27.07,0,0,1-27.08,27.07Z"/><path class="cls-5" d="M108,172.77q-9.7,2.68-7.56-2.34a4.79,4.79,0,0,0-.67-3.44,10.36,10.36,0,0,1,3.47,4.84c-.48-2.52-.56-4-.23-4.3q1.35,3.83,2.16,3.6-.6-2.4.36-3.6c1.06,3.73,1.89,5.48,2.47,5.24Z"/><path class="cls-5" d="M102,174.08c-6.74,1.1-15,5.47-17.1,11.4-2.14-10.31-.8-18.69,2.29-25.17,6.5,2.08,12,5.39,14.81,13.77Z"/><path class="cls-5" d="M102.11,176.54c7.32,1.19,16.31,5.94,18.57,12.37,2.33-11.19.87-20.3-2.48-27.34-7.06,2.26-13.09,5.86-16.09,15Z"/><path class="cls-5" d="M87.62,207.76c-.31,2.67-1.94,4.53-4.78,5.9l-1.6.78.32-1.76a16,16,0,0,0,.36-4.13c-.22-3.05-2.13-6.56-3.51-9.22l-.28-.55.4-.46a10.92,10.92,0,0,1,1-1A44.4,44.4,0,0,1,83,194.52l.19-.14.23,0a11.47,11.47,0,0,1,5.94.77c5.63,2.42,8,9,8.83,14.63l.43,3-2-2.32a16.82,16.82,0,0,0-1.83-1.75l-1.39-1.15c0,.22,0,.44,0,.65a16.09,16.09,0,0,1-1.35,6.19l-1,2.12-.72-2.21a30.66,30.66,0,0,0-2.5-6.14c-.08-.15-.17-.28-.25-.41Z"/><path class="cls-13" d="M105.24,176.44c5.37,1.14,12.08,4.48,15.13,9.46,1.11-7.3.66-14.8-2.29-21.61-6.27,2.2-10.48,5.54-12.84,12.15Z"/><path class="cls-13" d="M98.56,173.78c-4.46,1-10,3.9-12.59,8.24a35.76,35.76,0,0,1,1.9-18.85c5.22,1.92,8.73,4.84,10.69,10.61Z"/><path class="cls-12" d="M99.22,214.21c-1.29-.19-2.82-8.74-4.08-8.86s-4.06.57-5.19.36c-2.85-1-5.5-.26-7.89-.48l-4.84-3.61c-3.07-2.29-3.16-4.81-3-4.67.43.54,2.06-.41,2.25-.54,1.94-1.29,1.38-4.86-.43-4.41,3-2.07,6.17-2.13,7.81-3.46s-1.21-13.92,13.88-16.61C112.51,170.3,121.86,179.3,120,197c.55.41,1.86,5.06,2.25,6.43-6.57,9.37-12.87,12.3-23,10.79Z"/><path class="cls-13" d="M98.33,189.36a11.86,11.86,0,0,0,3.93.66c-.76-.8-1.47-1.34-3.93-.66Z"/><path class="cls-5" d="M97.52,212.73a4.82,4.82,0,0,0,1,3.16c.6,1.37,1,1.24,2.52,1.55,10.63.44,14.16-.8,22.45-10-.19-2.12-.21-2.91-1.92-4.1q-8.49,11.7-24.1,9.37Z"/><path class="cls-10" d="M83.61,188.11a15.4,15.4,0,0,1,2.08-8.44c.06.69.14,1.37.24,2.05-1.29,3.44-.88,6.55-1.86,7.34-1.64,1.34-4.82,1.39-7.81,3.46,1.81-.45,2.37,3.12.43,4.41-.19.13-1.82,1.08-2.25.54-.11-.13.31,1.77,3.47,4,.51.36,6,.83,8.72-.59.73-.94,3.52.82,3.83.83a71.37,71.37,0,0,1-9.14.94.53.53,0,0,0-.41.89c1.7,1.92,3.34,1.54,7.65,1.31l7.32-.23c.77,0,1.52,5.06,1.3,5.2s-1.13-4.44-1.48-4.48C93,204.94,81.62,208,79,202.92c-.32-.61-1.5-.37-1.87-.68-3.31-2.7-4.25-4.23-4.07-7,.67-4.63,7-5.73,10.55-7.14Zm14.16-16.34a20.87,20.87,0,0,1,9.48.47q-.19.31-.39.66a21.59,21.59,0,0,0-8.79-.43l-.3-.7Zm22.61,14c.18.61.33,1.24.46,1.89a20.55,20.55,0,0,1,0,8.52c.62,1.15,1.2,5.21.93,5.66-.45.74-1.12-4.42-2-5a28,28,0,0,0-2-14,15.25,15.25,0,0,1,2.53,3.07v-.09Z"/><path class="cls-9" d="M100.17,213.94a4.48,4.48,0,0,0,1.11.2,3.68,3.68,0,0,0,1-.11c.07.36.15.72.22,1.07s.14.72.22,1.07a2.49,2.49,0,0,1-1,.19,3.18,3.18,0,0,1-1.12-.28c-.08-.35-.15-.71-.22-1.07s-.15-.71-.22-1.07Z"/><path class="cls-9" d="M107.63,213.91a4.11,4.11,0,0,0,1.05-.09,4.94,4.94,0,0,0,1-.41l.21,1.07c.07.35.15.71.22,1.07a3.06,3.06,0,0,1-1,.49,3,3,0,0,1-1.07,0c-.07-.36-.14-.72-.22-1.08l-.21-1.07Z"/><path class="cls-13" d="M86.2,189.93a7.58,7.58,0,0,1,5,.6q-1.14-2.29-4.2-1.93a4.93,4.93,0,0,0-2.25-1.23,2.78,2.78,0,0,1-.67,1.69,4.06,4.06,0,0,1-.63.42q3-1.48,2.76.45Zm-3.06-.3Z"/><path class="cls-9" d="M114.68,211.28a4.51,4.51,0,0,0,.93-.47,6,6,0,0,0,.88-.76c.06.34.13.67.19,1s.13.66.19,1a3.93,3.93,0,0,1-.86.83,2.75,2.75,0,0,1-.94.4c-.07-.33-.13-.67-.2-1s-.13-.66-.19-1Z"/><path class="cls-9" d="M120.43,206.74a3,3,0,0,0,.71-.47,5.59,5.59,0,0,0,.66-.75l.15,1c0,.33.09.66.14,1a3.79,3.79,0,0,1-.65.82,1.85,1.85,0,0,1-.72.4c0-.33-.1-.66-.14-1l-.15-1Z"/><path class="cls-13" d="M86.64,187.13a10,10,0,0,0,3.53.73c-.68-.81-1.32-1.38-3.53-.73Z"/><path class="cls-13" d="M104.33,196.39l1.79-.29q4.71,3.94,4.09,6.9-1.65-1.74-1.44-1.08c1.19,6,.81,10.07-1.08,11.16a31.36,31.36,0,0,1-6.19.29q4-4.83,3.85-9.11c1.18.17,1.64.36,1.39.56q-.54-5.58-2.41-8.43Z"/><path class="cls-13" d="M84.31,202.14a10.5,10.5,0,0,1-3.36.41.54.54,0,0,0-.41.9c3.61,4,2.76,4.87,1.91,9.4,4-2,4.57-4.61,4.25-7.25,1.23.8,2.45,2,4.53,8.43a16,16,0,0,0,1.11-8.54c2.53,2.15,4,3.12,5.09,4.35-.18-9.18-5.89-8.61-13.12-7.7Z"/><path class="cls-5" d="M100.65,189.52a2.36,2.36,0,1,1,0-4.72,2.69,2.69,0,0,1,.7.1,1.19,1.19,0,0,0-.7,1.08,1.18,1.18,0,0,0,1.18,1.18,1.19,1.19,0,0,0,1.08-.7,2.69,2.69,0,0,1,.1.7,2.36,2.36,0,0,1-2.36,2.36Zm.73-4.61.1,0-.1,0Zm.43.19.12.08-.12-.08Zm.18.12a1.09,1.09,0,0,1,.17.13,1.09,1.09,0,0,0-.17-.13Zm.47.43a2.26,2.26,0,0,1,.23.31,2.26,2.26,0,0,0-.23-.31Zm.4.68a1,1,0,0,1,0,.1,1,1,0,0,0,0-.1Z"/><path class="cls-9" d="M101.83,187.16a1.18,1.18,0,0,1-1.18-1.18,1.19,1.19,0,0,1,.7-1.08,2.38,2.38,0,0,1,1.56,1.56,1.19,1.19,0,0,1-1.08.7Z"/><path class="cls-5" d="M89,187.36a2.36,2.36,0,1,1,0-4.72,2.61,2.61,0,0,1,.69.1,1.18,1.18,0,0,0,.49,2.26,1.17,1.17,0,0,0,1.07-.7,2.33,2.33,0,0,1,.11.7A2.36,2.36,0,0,1,89,187.36Zm.73-4.61.1,0-.1,0Zm.43.19.12.08-.12-.08Zm.18.12.17.13-.17-.13Zm.47.43a2.18,2.18,0,0,1,.22.31,2.18,2.18,0,0,0-.22-.31Zm.4.68,0,.1,0-.1Z"/><path class="cls-9" d="M90.15,185a1.18,1.18,0,0,1-.49-2.26,2.36,2.36,0,0,1,1.56,1.56,1.17,1.17,0,0,1-1.07.7Z"/><path class="cls-5" d="M99.5,172.3c-2.81-2.83-4.54-4.75-4.54-4.75a23.64,23.64,0,0,0-5.63-2.72q3.39,2.74,3.78,3.6a11,11,0,0,0-3.6-.54q4.24,1.67,4.32,2.52a10.12,10.12,0,0,0-2.7.36q3.81.4,3.42.9a7.9,7.9,0,0,0-3.28,2.48c4-1.34,7.28-2,8.23-1.85Z"/><path class="cls-5" d="M105.47,172.68c3.07-2.55,5-4.3,5-4.3a23.28,23.28,0,0,1,5.85-2.17c-2.42,1.61-3.79,2.68-4.1,3.23a10.58,10.58,0,0,1,3.63-.2q-4.38,1.24-4.54,2.1A10.12,10.12,0,0,1,114,172c-2.56,0-3.72.22-3.49.57a19,19,0,0,1,4.6,4.66c-3.09-1.94-8.63-4.58-9.59-4.5Z"/><path class="cls-10" d="M106.42,196.86l.26,1-.92-.52a1.38,1.38,0,0,0-.7-.18,11.33,11.33,0,0,1,1.85,4.07,5.69,5.69,0,0,1-.45,4.14l-.7,1.16-.13-1.35a2,2,0,0,0,0-.26,14.63,14.63,0,0,1-1.16,5.13,6.33,6.33,0,0,1-3.21,3.43l-.34-.83a5.48,5.48,0,0,0,2.73-3,14.53,14.53,0,0,0,1.11-5.75v-.45h.45a1.34,1.34,0,0,1,.91.46,5.71,5.71,0,0,0,0-2.53,10.61,10.61,0,0,0-2.11-4.27l-.37-.47.55-.23a2.69,2.69,0,0,1,1.12-.17,5.37,5.37,0,0,0-1.93-1.84,14.82,14.82,0,0,0-5.12-1.72c1.54-.73,7.43.92,8.25,4.13Z"/><path class="cls-10" d="M81.21,189.26a13.21,13.21,0,0,1,2.35-.44,9.73,9.73,0,0,1,1.68,0c.6.06,1,.25,1.1.57v0h0v0l.06.3c1-.25,3.64-.48,4.78.82-1.51-.78-4.23-.08-5.78.39l-.58.17v-.6a1.91,1.91,0,0,1,.27-.81,9.14,9.14,0,0,0-1.45,0,12.2,12.2,0,0,0-2.19.42l-.25-.87Z"/><path class="cls-5" d="M106.88,171.5q-8.77.17-7.38.8A32.67,32.67,0,0,0,92.63,176a9,9,0,0,1,3-.38,63.3,63.3,0,0,0-4.14,4.86,18,18,0,0,1,2.7-.36q-.41,5.38.18,5.4,3.34-4.53,4.14-4.32.26,1.14.54,1.26,4.5-2.91,3.78-4l.9.9q2.82-3.61,2.16-5.4.85.22.9.72a5.26,5.26,0,0,0,.09-3.24Z"/><path class="cls-5" d="M115.06,177.18c1,.86,5.67,5.81,5.77,20.06l-1.26,4.5a6.36,6.36,0,0,0,1.9,2.7c-4.55,5.14-8.17,7.31-10.46,7.24q2-.6,5.32-9.22-.26.57-1.44.54.81-.57,3.6-7.74a5.27,5.27,0,0,1-2,.18c3.3-4.86,1.33-12.61-1.45-18.26Z"/><path class="cls-5" d="M85,177.44l.78,4.65q1.88-4.26,4.08-5.55l-1.82.22,2.36-1.66q-4.41.77-5.4,2.34Z"/><path class="cls-5" d="M114.76,176.5l2.85,4.59c-2.18-2.39-5.4-3.84-7-3.83a4.51,4.51,0,0,1,1.8-.54,15,15,0,0,0-3.24-1.08c2.39-1.09,4.42.28,5.63.86Z"/><path class="cls-14" d="M302.6,225a.62.62,0,0,0-.46.19.73.73,0,0,0-.19.49.64.64,0,0,0,.19.45.65.65,0,0,0,.46.18h.76a2.06,2.06,0,0,1,.81.17,2.17,2.17,0,0,1,.69.47,2.29,2.29,0,0,1,.48.7,2,2,0,0,1,.18.85,2,2,0,0,1-.17.83,2.14,2.14,0,0,1-1.14,1.15,2.24,2.24,0,0,1-.85.19h-2a.76.76,0,0,1-.55-.22.77.77,0,0,1-.21-.55.76.76,0,0,1,.21-.53.74.74,0,0,1,.55-.22h2a.66.66,0,0,0,.46-.19.6.6,0,0,0,.21-.46.62.62,0,0,0-.2-.47.72.72,0,0,0-.46-.2h-.77a2.28,2.28,0,0,1-.82-.18,2.21,2.21,0,0,1-.7-.45,2.36,2.36,0,0,1-.47-.68,2.07,2.07,0,0,1-.18-.86,1.9,1.9,0,0,1,.17-.81,2.3,2.3,0,0,1,.46-.7,2.62,2.62,0,0,1,.69-.49,2.06,2.06,0,0,1,.85-.18h2a.69.69,0,0,1,.52.22.81.81,0,0,1,.23.54.73.73,0,0,1-.21.54.7.7,0,0,1-.54.22Z"/><path class="cls-14" d="M310.36,223.47a.78.78,0,0,1,.54.22.68.68,0,0,1,.24.54v5.67a.67.67,0,0,1-.06.28.84.84,0,0,1-.18.24.85.85,0,0,1-.25.17.75.75,0,0,1-.29.06.72.72,0,0,1-.52-.22.69.69,0,0,1-.22-.53v-2.07h-2v2.07a.69.69,0,0,1-.22.53.72.72,0,0,1-.54.22.74.74,0,0,1-.53-.21.79.79,0,0,1-.23-.54v-5.67a.66.66,0,0,1,.24-.55.81.81,0,0,1,.52-.21.73.73,0,0,1,.54.23.71.71,0,0,1,.22.53v2.07h2v-2.07a.71.71,0,0,1,.22-.53.73.73,0,0,1,.52-.23Z"/><path class="cls-14" d="M312.59,223.47a.7.7,0,0,1,.52.23.71.71,0,0,1,.22.53v5.67a.75.75,0,0,1-.74.75.75.75,0,0,1-.77-.75v-5.67a.77.77,0,0,1,.77-.76Z"/><path class="cls-14" d="M317.81,226.74a2.16,2.16,0,0,1,.52.73,2.25,2.25,0,0,1,.2.93,2.16,2.16,0,0,1-.18.88,2.34,2.34,0,0,1-.48.71,2.24,2.24,0,0,1-.72.49,2.16,2.16,0,0,1-.88.18h-1.64a.86.86,0,0,1-.44-.28.76.76,0,0,1-.17-.48v-4.37a2,2,0,0,1,.61-1.46,2.13,2.13,0,0,1,.65-.44,2,2,0,0,1,.81-.16,2,2,0,0,1,1.47.61,1.93,1.93,0,0,1,.45.66,2,2,0,0,1,.16.81,2.06,2.06,0,0,1-.36,1.19ZM316.09,225a.48.48,0,0,0-.39.17.53.53,0,0,0-.16.39v.56h.55a.55.55,0,0,0,.56-.56.53.53,0,0,0-.16-.39.51.51,0,0,0-.4-.17Zm.19,4.14a.74.74,0,0,0,.53-1.25.73.73,0,0,0-.53-.22h-.73v1.47Z"/><path class="cls-14" d="M323.58,225.7v0h0v4.17a.75.75,0,0,1-.75.76.75.75,0,0,1-.77-.76v-1.31H320.6v1.31a.73.73,0,0,1-.22.54.8.8,0,0,1-.56.22.71.71,0,0,1-.52-.22.73.73,0,0,1-.22-.54v-4.17h0v0a2.12,2.12,0,0,1,.18-.87,2.2,2.2,0,0,1,.49-.71,2.34,2.34,0,0,1,.71-.48,2.26,2.26,0,0,1,2.46.48,2.34,2.34,0,0,1,.48.71,2.12,2.12,0,0,1,.18.87Zm-1.51,0a.72.72,0,0,0-.21-.52.73.73,0,0,0-.53-.22.7.7,0,0,0-.52.22.72.72,0,0,0-.21.52v1.34h1.47v-1.34Z"/><path class="cls-14" d="M327.54,223.47a.72.72,0,0,1,.53.23.75.75,0,0,1,.22.53v5.67a.73.73,0,0,1-.22.53.76.76,0,0,1-1.07,0,.69.69,0,0,1-.22-.53v-5.67a.71.71,0,0,1,.22-.53.73.73,0,0,1,.54-.23Z"/><path class="cls-14" d="M331.5,223.47a2.4,2.4,0,0,1,1,.19,2.78,2.78,0,0,1,.8.55,2.73,2.73,0,0,1,.56.81,2.76,2.76,0,0,1,.23,1v3.87a.75.75,0,0,1-.76.77.76.76,0,0,1-.54-.22.74.74,0,0,1-.22-.55V226a.9.9,0,0,0-.09-.4,1,1,0,0,0-.22-.33.83.83,0,0,0-.33-.22.87.87,0,0,0-.4-.08.92.92,0,0,0-.4.08.83.83,0,0,0-.33.22,1,1,0,0,0-.23.33,1.06,1.06,0,0,0-.08.4v3.87a.78.78,0,0,1-.22.55.75.75,0,0,1-.53.22.77.77,0,0,1-.54-.22.74.74,0,0,1-.22-.55V226a2.73,2.73,0,0,1,.21-1,2.57,2.57,0,0,1,.54-.8,3,3,0,0,1,.81-.55,2.75,2.75,0,0,1,1-.22Z"/><path class="cls-14" d="M337.22,230.66a2.4,2.4,0,0,1-1-.2,2.46,2.46,0,0,1-.8-.54,3.07,3.07,0,0,1-.54-.82,2.62,2.62,0,0,1-.23-1v-3.86a.73.73,0,0,1,.22-.54.76.76,0,0,1,1.07,0,.76.76,0,0,1,.21.54v3.86a.91.91,0,0,0,.09.41,1.33,1.33,0,0,0,.22.34,1.19,1.19,0,0,0,.33.22,1,1,0,0,0,.8,0,1,1,0,0,0,.56-.56.91.91,0,0,0,.09-.41v-3.86a.73.73,0,0,1,.22-.54.7.7,0,0,1,.54-.22.73.73,0,0,1,.54.22.77.77,0,0,1,.22.54v3.86a2.69,2.69,0,0,1-.21,1,2.66,2.66,0,0,1-.54.82,2.73,2.73,0,0,1-.81.56,2.44,2.44,0,0,1-1,.21Z"/><path class="cls-15" d="M318.67,214.72a27.07,27.07,0,1,1,27.07-27.07,27.07,27.07,0,0,1-27.07,27.07Z"/><path class="cls-9" d="M312.46,205.53c-1.68-.81-3.42-.21-6.67,0-2.07.14-5.11-2.86-6.55-5-.33-.5-1.36-.31-1.9-.65a11.92,11.92,0,0,1-4.35-3.63,28.47,28.47,0,0,1-.83-3.08,12.05,12.05,0,0,1,1.06-4.44c.5-1.2-.94-.51.25-.79,3.77-.87,9.2-4,9.19-3.44,0,.83,4.06-11.27,9.56-15.28.35-.26,0-.2,0-.66-.45-4.65.22-5.59.73-7.36a25.16,25.16,0,0,1,2.6-.43c1.66,2.16,3.22,3.64,3.47,5.88a1.62,1.62,0,0,0,1.06,1.31c20.63,14.51-11.52.86,11.1,17.59.34.25,2.49,1.47,2.35,1.89s-2.54,0-2.95,0c-1,.07,4.87,1.62,4.27,2.6.36.41.1,1.37.09,1.88,0,.3-.39.06-.63,0-.67-.24,1.43.58-.32.94,1.48.39,2.61,1.5,5.54,2.39a15,15,0,0,1,2,1.25c1.35,1.39-.4,5.06-.63,6.11a1.87,1.87,0,0,1-.81,1.38c-.88.93-.84.58-1.64,1.88-1.63,2.6-6.41,5.5-11.2,7.52a27.15,27.15,0,0,1-8.55,1.37,26.76,26.76,0,0,1-3.6-.24c-1.75-3.26-.76-7.29-2.61-8.95Z"/><path class="cls-15" d="M304.32,178.86c1.72-3.3,4.22-7.25,7.2-9.33.36-.25,0-.19,0-.65a42.4,42.4,0,0,1,.22-11.5.5.5,0,0,1,.38-.46.46.46,0,0,1,.52.22c2.05,3.32,8.05,4.33,8.37,7.16a1.62,1.62,0,0,0,1.06,1.31c2.67.42-.36-.37,2.07,1,.53.31,1.36,1.32,1.61.76,1.7-3.19,3.46-7.15,7-8.6a.45.45,0,0,1,.47.07.55.55,0,0,1,.2.47c-.35,4.93,6.32,20.61,4,24.73.72,1.12.12,1.8,1.14,3,.31.29,2.49,1.46,2.36,1.89s-2.13,1.09-2.54,1.12c-1,.06-2.41.09-3.09,1.09.47.47.77-.17,1.3.24,5.27,4,5.65,2.83,6,6.82,0,.15,1.83,1,1.14,1.72q-.72,5.47-16.64,13,2-2.34,3.62-16.15c-.26.76-1.88-3.86-3.63-4,.09-.12,6.65-9.49-3.48-6.49-.74.22-1.79-1.13-1.75-2.12s0-1.08-.78-1.62-2.15-.93-3.15-1.49c-.56-.34-1.8.63-2.4.33-3-1.55-6.48-2.51-10.21-1.19-.5.18-.43.5-1,.68a4.77,4.77,0,0,1-.73.16c.11-1.2.67-1,.77-2.17Z"/><path class="cls-9" d="M319.82,168.34l-1.37.07a29.77,29.77,0,0,0-5.76,1.09l-.4.19-.26-.35c-1-1.45.47-7.41.82-9.45,2.85,1.4,5.79,6.76,7,8.45Z"/><path class="cls-9" d="M335.14,173.66c-2.3-2.83-4.78-3.75-7-4.76a59.25,59.25,0,0,1,4.09-6.91,40.48,40.48,0,0,1,2.91,11.67Z"/><path class="cls-15" d="M330.17,192.37c-1.06-.73-1.63-.59-2.73,0-.2.1-.21.19-.35.39a18.33,18.33,0,0,0-1.1,2.35c-.28.54-.63,1.06-.95,1.56-16.4,25.35,31,13.45,5.13-4.31Z"/><path class="cls-10" d="M302.3,184c-.18-5.58,3.42-11.16,5.67-12.51l.55-.31c.06-.45,1.63-14.79,2.75-15.5s9.92,8.4,10.84,11c1.7.35.85-.08,3.12.07,1.88-3.34,7.17-10.89,8-10.18,1.16.95,10,30.65,8.64,35.67.65,1.15.37,5,.08,5.49-.46.74-1.15-4.42-2-5.05.61-6.43-2.69-20.42-9.1-22.24q2.67.62,6.1,4.11a1.41,1.41,0,0,1,.38.27,158.19,158.19,0,0,0-4.82-15.1c-.34-.27-5.53,6.21-6.64,8.3a19.36,19.36,0,0,1-4.43.2c-1.09-2-7.41-10.71-9.07-10.28-1.09.28-1.79,8.56-1.88,11.65a18.17,18.17,0,0,1,6.34-.92c-15.22,2.65-12.39,14.93-14.06,16.24s-5,1.39-8.14,3.46c1.89-.45,2.47,3.12.45,4.41-.2.13-1.89,1.08-2.34.54-.11-.13,2.29,4.47,5.58,6.67.54.36,7.19-1.22,9.29-3.72.81-1.38,1.38-2.06,1.69-2,1,4-6.58,6.59-8.63,6.86,2.11,3,3.49,3.67,8.63,3.41,4.23-.22,0,.82-.41.93a8.18,8.18,0,0,1-9.43-3.95c-.33-.61-1.56-.37-2-.67-3.44-2.71-6.39-6.94-6.2-9.7.7-4.63,7.33-5.73,11-7.14Z"/><path class="cls-5" d="M312.22,209.93a6,6,0,0,0,1.28,3.83c.73,1.66,1.19,1.49,3.05,1.87,12.85.53,17.84-1.68,28.74-13.66-.21-2.56-1.52-3.69-3.91-3.36q-10.26,14.13-29.16,11.32Z"/><path class="cls-9" d="M318.55,179.25c2.52-1,5.86,5.36,2.34,6.27-2.42.64-5.33-5.73-2.34-6.27Z"/><path class="cls-9" d="M311,178.87c1,2.47-3.32,5.64-4.36,2.19-.74-2.37,3.64-5.11,4.36-2.19Z"/><path class="cls-5" d="M322.52,182.2c-1.52,2.57-4.88,2.24-5.67,1.08a2.83,2.83,0,0,1,3.35-2,.75.75,0,0,0-.09.37.66.66,0,1,0,1.31,0,7.71,7.71,0,0,1,1.1.57Z"/><path class="cls-9" d="M330,212c-.17-.59-.31-1.05-.4-1.38a.64.64,0,0,0-.81-.44c-6.25,1.85-8.57,2.11-13.39,1.5a.66.66,0,0,0-.61.26.65.65,0,0,0-.06.66q.51,1.06.72,1.53a.63.63,0,0,0,.55.37c5.58.34,7.71.36,13.6-1.7a.66.66,0,0,0,.4-.8Z"/><path class="cls-9" d="M311.72,177.45a2.28,2.28,0,0,1-1.83-1.44c-.31-.8,0-1.44.7-1.44a2.23,2.23,0,0,1,1.82,1.44c.32.79,0,1.44-.69,1.44Z"/><path class="cls-9" d="M317.09,178.33a2.26,2.26,0,0,0,2.27-.54c.62-.59.61-1.3,0-1.6a2.27,2.27,0,0,0-2.27.54c-.62.59-.61,1.3,0,1.6Z"/><path class="cls-5" d="M305.16,180.56c.84,2.83,4,3.2,5,2.23a2.66,2.66,0,0,0-2.64-2.66.81.81,0,0,1,0,.38.68.68,0,0,1-.76.56.67.67,0,0,1-.45-.84,9,9,0,0,0-1.14.33Z"/><path class="cls-16" d="M309.39,194.58l.15-.23c-.05.21-.09.41-.13.61,0-.13,0-.25,0-.38Zm-.29,1.65c-1,3.63-2.47,4.26-7.69,5.8q-.35-.43-.72-1c1.68-.22,7.05-2,8.41-4.84Z"/><path class="cls-17" d="M237.23,223.47a.78.78,0,0,1,.54.22.68.68,0,0,1,.24.54v5.67a.67.67,0,0,1-.06.28.84.84,0,0,1-.18.24.85.85,0,0,1-.25.17.75.75,0,0,1-.29.06.72.72,0,0,1-.52-.22.69.69,0,0,1-.22-.53v-2.07h-2v2.07a.69.69,0,0,1-.22.53.72.72,0,0,1-.54.22.74.74,0,0,1-.53-.21.79.79,0,0,1-.23-.54v-5.67a.66.66,0,0,1,.24-.55.81.81,0,0,1,.52-.21.73.73,0,0,1,.54.23.71.71,0,0,1,.22.53v2.07h2v-2.07a.71.71,0,0,1,.22-.53.73.73,0,0,1,.52-.23Z"/><path class="cls-17" d="M241.2,230.66a2.44,2.44,0,0,1-1-.2,2.41,2.41,0,0,1-.79-.54,2.88,2.88,0,0,1-.55-.82,2.82,2.82,0,0,1-.23-1v-3.86a.75.75,0,0,1,.77-.76.67.67,0,0,1,.52.22.73.73,0,0,1,.22.54v3.86a1.07,1.07,0,0,0,.08.41,1.13,1.13,0,0,0,.23.34,1,1,0,0,0,.32.22,1.1,1.1,0,0,0,.4.08,1.11,1.11,0,0,0,.41-.08,1,1,0,0,0,.33-.22,1.36,1.36,0,0,0,.23-.34,1.07,1.07,0,0,0,.08-.41v-3.86a.76.76,0,1,1,1.52,0v3.86a2.69,2.69,0,0,1-.21,1,2.66,2.66,0,0,1-.54.82,2.73,2.73,0,0,1-.81.56,2.44,2.44,0,0,1-1,.21Z"/><path class="cls-17" d="M246.53,225a.6.6,0,0,0-.46.19.8.8,0,0,0-.2.49.69.69,0,0,0,.2.45.63.63,0,0,0,.46.18h.76a2,2,0,0,1,.8.17,2.33,2.33,0,0,1,.7.47,2.29,2.29,0,0,1,.48.7,2,2,0,0,1,.18.85,2.19,2.19,0,0,1-.63,1.52,2.09,2.09,0,0,1-.69.46,2.15,2.15,0,0,1-.84.19h-2a.75.75,0,0,1-.77-.77.77.77,0,0,1,.22-.53.74.74,0,0,1,.55-.22h2a.68.68,0,0,0,.46-.19.59.59,0,0,0,.2-.46.61.61,0,0,0-.19-.47.74.74,0,0,0-.46-.2h-.77a2.38,2.38,0,0,1-.83-.18,2.29,2.29,0,0,1-.69-.45,2.2,2.2,0,0,1-.48-.68,2.08,2.08,0,0,1,0-1.67,2.33,2.33,0,0,1,.47-.7,2.62,2.62,0,0,1,.69-.49,2,2,0,0,1,.85-.18h2a.7.7,0,0,1,.52.22.81.81,0,0,1,.23.54.73.73,0,0,1-.21.54.7.7,0,0,1-.54.22Z"/><path class="cls-17" d="M255,229.36a.74.74,0,0,1,.23.54.76.76,0,0,1-.23.54.73.73,0,0,1-.53.22.77.77,0,0,1-.55-.22l-2.28-2.31v1.76a.73.73,0,0,1-.22.54.79.79,0,0,1-1.09,0,.73.73,0,0,1-.22-.54v-5.67a.75.75,0,0,1,.76-.75.74.74,0,0,1,.55.22.73.73,0,0,1,.22.53V226l2.28-2.3a.77.77,0,0,1,.55-.22.73.73,0,0,1,.53.22.74.74,0,0,1,0,1.07l-2.29,2.3,2.29,2.3Z"/><path class="cls-17" d="M260.8,223.62a.83.83,0,0,1,.34.5.74.74,0,0,1-.13.57l-1.82,2.59v2.6a.72.72,0,0,1-.22.54.76.76,0,0,1-1.07,0,.72.72,0,0,1-.22-.54v-2.6l-1.82-2.59a.77.77,0,0,1-.11-.57.71.71,0,0,1,.31-.5.7.7,0,0,1,.56-.12.65.65,0,0,1,.48.32l1.34,1.91,1.32-1.91a.69.69,0,0,1,.49-.32.67.67,0,0,1,.55.12Z"/><path class="cls-18" d="M247.71,214.88a27.07,27.07,0,1,1,27.07-27.07,27.07,27.07,0,0,1-27.07,27.07Z"/><path class="cls-9" d="M221.19,189c.33-1.08.37,0,1.45-.35A92.47,92.47,0,0,1,232,186c.5-.08,1-2.1,1.07-2.81.72-1.62,0-3.41.32-4.74s1.7-2.21,2.39-3.19c13.42-19,26.15,16.81,28.27,16.31a7.18,7.18,0,0,1,1.85.94c1.29,1.09-.22,4.33-.4,5.24a1.64,1.64,0,0,1-.71,1.23c-.79.84-.76.55-1.46,1.7a28.63,28.63,0,0,1-14.57,7.11c-1.65.28.12-2.35-7.77-3.49-2.42-.35-4.63-1.48-6.83-1.48a8,8,0,0,1-5.38-2.15c-4.23-3.78-9.51-5.52-7.6-11.73Z"/><path class="cls-19" d="M228.8,200.17a6,6,0,0,0,2.44,0,19.67,19.67,0,0,0,2.93-.62,22.23,22.23,0,0,0,4.09-1.49,18.21,18.21,0,0,0,3.05-2c.59-.47.66-.53,0-.24a31.47,31.47,0,0,1-3.83,1.43,42.71,42.71,0,0,1-5.42,1.1c-1.65.24-2.91.36-3.6.45s-.81.15-.71.41a1.77,1.77,0,0,0,1.07.95Z"/><path class="cls-10" d="M228.23,199.34c1.07,1.28,1.62,2.45,3.18,3a17.87,17.87,0,0,0,2.79.2l8.48.74c.79.06,4.78.56,5.88,3.52a16.94,16.94,0,0,0,.7-6.95c.45-.67,3.29,2.81,5.37,5,.35-2.52,3.83-7.53,1.5-10.72q.72-.71,4.85.6c-.09-1.31-5.41-4.93-7.65-6.57,3.51-.42,3.64-1.86,5.42-4-2.42-.21-2.11-2-4.92-3.27-1.09-.7-2-.13,1.11-1.18-3.64-.78-3.05-1.84-7.34-.49a7.88,7.88,0,0,1-.46-3.84c-1.77.24-3.72,2.42-5,3.93,0,0-1.24-.66-1.74-5.12-1.58,1.79-1.78,3-2.22,5.15a8.68,8.68,0,0,1-3.43-1.68c-1.82,3.84-2,7.45,4.46,4.78-.14.8-2.72,1.9-5.57,2.9-2.11.74-6.28,1.94-7.6,2.48.59.85,2.67,2.05,2.3,3.59s-1.9,2.71-6.09,3.56l1.49,1.35c3.78,3.39,15.36,1.31,18.62-1.15-3.18,3.38-9.72,3.65-14.12,4.18Zm8,4a11.73,11.73,0,0,1-5.16-.47c-1.89-.7-2.61-1.94-3.73-2.94a6.35,6.35,0,0,1-2.44-1l-4.29-2.79c-1.49-1-1.28-4.5-.79-6.8a1.14,1.14,0,0,1,.81-1c1.44-.48,10.89-2.92,11.17-4.48.56-3.1,1.87-9.29,4.85-11.27.25-.17-2.14-15.12-2.36-16.3-.13-.66,9.06,4.23,12.23,11,2.4.23,3-.13,5.2.89,1.92-1.24,3.86-6.47,4.65-10.68.08-.4.62-.5,1-.4s.51.46.68.8c2.6,5.21,7.19,17.51,5.3,24.17,1,6.43,1.84,3.94,4.05,9,.76,8.45-.67.59-1.85,6.62a1.64,1.64,0,0,1-.71,1.23c-.79.84-.76.55-1.46,1.7a28.63,28.63,0,0,1-14.57,7.11c-1.65.28.12-2.35-7.77-3.49a49,49,0,0,1-4.82-.93Z"/><path class="cls-9" d="M260.21,174.1a10.1,10.1,0,0,0-5.18-4.31c1.08-2.13,2.42-4.4,2.61-5.95,2,5,3.11,9.29,2.57,10.26Z"/><path class="cls-9" d="M242.88,168a25.91,25.91,0,0,0-4.54-5.64,39.91,39.91,0,0,1,1,7.74c1.12-.64,2.36-2.08,3.51-2.1Z"/><path class="cls-5" d="M244.41,182.83c-2.5,2-2.37,1.07-1.52-1.35a18.1,18.1,0,0,0,4-1.59,6.21,6.21,0,0,1,4.54,2.34c-2.81,1.22-5.17,1.42-7.06.6Z"/><path class="cls-5" d="M246.06,184.69c-1.69.26-2.95-.45-2.82-1.59s1.61-2.27,3.3-2.53,3,.45,2.82,1.59-1.61,2.27-3.3,2.53Z"/><path class="cls-18" d="M246.14,184.06c-1.18.18-2.06-.31-2-1.1s1.12-1.59,2.3-1.77,2.06.32,2,1.11-1.12,1.58-2.29,1.76Z"/><path class="cls-5" d="M245.67,183.19c-.81.12-1.41-.21-1.35-.76a1.8,1.8,0,0,1,1.58-1.2c.8-.13,1.4.21,1.34.75s-.77,1.09-1.57,1.21Z"/><path class="cls-9" d="M247.27,182.64a.72.72,0,0,1-.78-.7.79.79,0,0,1,.73-.8.72.72,0,0,1,.77.7.79.79,0,0,1-.72.8Z"/><path class="cls-5" d="M234.12,183.58c1.27.19,2.83.48,2.51.16-1.83-1.9-1.34-1.89-1.45-2.93a18.12,18.12,0,0,1-2.56-.67l-.88,3.51a2.53,2.53,0,0,0,2.38-.07Z"/><path class="cls-5" d="M233.08,184.51c1.44,0,2.46-.85,2.29-2a2.92,2.92,0,0,0-2.84-2.07l-.92,3.68a3.61,3.61,0,0,0,1.47.35Z"/><path class="cls-18" d="M233,183.9c1,0,1.72-.59,1.6-1.37a2.06,2.06,0,0,0-2-1.44h-.16l-.62,2.46a2.51,2.51,0,0,0,1.22.35Z"/><path class="cls-5" d="M233.75,183c.69,0,1.18-.4,1.09-.94a1.38,1.38,0,0,0-1.39-1c-.69,0-1.17.4-1.09.93a1.4,1.4,0,0,0,1.39,1Z"/><path class="cls-9" d="M232.21,182.53a.73.73,0,0,0,.61-.8.72.72,0,0,0-.43-.67l-.37,1.46a.59.59,0,0,0,.19,0Z"/><path class="cls-5" d="M261.89,187.65q.32,5.58,2.72,6,.24.38.51.75l-9.57,5.34q-.7,3.8-7.15,7.24a7.26,7.26,0,0,0-6.87-2.75c.33-.79-1.3-1-4.87-.74a2.62,2.62,0,0,1,3,1.94c-3.32,5.15,1.77,7.29-.27,10.17q8.49-1.26,10.8-3.08a8.9,8.9,0,0,0,2.47.65c-.17-2.56.93-2.78,1.94-3.81,4.15,2.47,3,.68,6.16,1.4-.49-3.51.27-1.7.61-4.58,3.66,3.39,2.31.69,3.05,2.84,1.34-4.19,2.94-5.92,1.32-10.53a5.18,5.18,0,0,1,3.67,4.22,14.55,14.55,0,0,0,.64-3h0c.61-1.15.84-3.6.68-7.33a5.86,5.86,0,0,1,1.45,2.18A21.82,21.82,0,0,0,267.48,181a7.63,7.63,0,0,1,2.95.6q-1.59-3.62-7.69-6.59a20.75,20.75,0,0,0-.85,12.6Z"/><path class="cls-9" d="M241.45,205.1c-2.53,5.17,1.49,5.75.1,8.68a11.5,11.5,0,0,0,5.44-2.61c.87-.92,1.62-2.65-.39-4.85.51,1.74-.54,3.38-1.95,4.61a24.73,24.73,0,0,0,.6-3c.07-1.62.09-2.55-3.8-2.83Z"/><path class="cls-9" d="M269.2,200.13c-.4-6.76-1-10.54-2-13.47-.17-.47.55-.15,1,.35.31.3-1.52-2.57-1.62-2.94-.37-.68-.74-1.32-1.08-1.91a16.64,16.64,0,0,0-6.05-5.49c2-1.48,7.72,2.11,8.95,3.77-2.23-.92-3.49-1.32-3.78-1.19a20.47,20.47,0,0,1,1.75,2.83,30.84,30.84,0,0,1,4.22,8.7,23.72,23.72,0,0,0-2-2.18q1.63,7.34.6,11.53Z"/><path class="cls-5" d="M241.08,217.6c-1.61-1.36-2.67-4.37-1.58-5.08,13.19-.6,22.61-5.9,26.77-11.26,2.43,1.4,3.28,2.72,2.53,4-4.92,6.57-14.39,11.57-27.72,12.38Z"/><path class="cls-9" d="M241.28,213.9c8.06-.67,17.07-3.25,22.89-9.13a32.94,32.94,0,0,1-7.71,4.82A46.67,46.67,0,0,1,241,213.51c.07.13.16.26.24.39Z"/><path class="cls-9" d="M242.76,216.54c8.06-.66,17.08-3.24,22.9-9.12a33.49,33.49,0,0,1-7.71,4.82,47,47,0,0,1-15.43,3.91q.12.21.24.39Z"/><path class="cls-19" d="M241.3,206.22a6.67,6.67,0,0,1,1.51,1,4.5,4.5,0,0,1,1,1.29,2.58,2.58,0,0,1,.35,1.13,13.57,13.57,0,0,1-.05,1.45,1.88,1.88,0,0,0,0,.63c0,.06.09,0,.33-.09a2,2,0,0,1,.86-.16c.19,0,.17.26.44.49l.14.09c.38-.26.75-.54,1.12-.84.87-.92,1.62-2.65-.39-4.85.51,1.74-.54,3.38-1.95,4.61a24.73,24.73,0,0,0,.6-3c.07-1.62.09-2.55-3.8-2.83-.17.35-.31.68-.43,1l.28.13Z"/><path class="cls-18" d="M247.71,215.51a27.08,27.08,0,1,1,27.07-27.08,27.07,27.07,0,0,1-27.07,27.08Z"/><path class="cls-9" d="M221.19,189.57c.33-1.08.37,0,1.45-.35a95,95,0,0,1,9.37-2.58c.5-.09,1-2.11,1.07-2.81.72-1.63,0-3.42.32-4.75s1.7-2.2,2.39-3.18c13.42-19,26.15,16.8,28.27,16.3a7.88,7.88,0,0,1,1.85.94c1.29,1.1-.22,4.34-.4,5.25a1.67,1.67,0,0,1-.71,1.23c-.79.84-.76.54-1.46,1.7a28.73,28.73,0,0,1-14.57,7.1c-1.65.28.12-2.35-7.77-3.49-2.42-.35-4.63-1.48-6.83-1.48a7.89,7.89,0,0,1-5.38-2.14c-4.23-3.79-9.51-5.53-7.6-11.74Z"/><path class="cls-19" d="M228.8,200.79a6.14,6.14,0,0,0,2.44.05,21.23,21.23,0,0,0,2.93-.63,22.23,22.23,0,0,0,4.09-1.49,18.21,18.21,0,0,0,3.05-2c.59-.47.66-.53,0-.24a31.47,31.47,0,0,1-3.83,1.43A42.71,42.71,0,0,1,232,199c-1.65.24-2.91.36-3.6.45s-.81.15-.71.42a1.79,1.79,0,0,0,1.07.94Z"/><path class="cls-10" d="M228.23,200c1.07,1.28,1.62,2.46,3.18,3a16.73,16.73,0,0,0,2.79.2l8.48.75c.79.05,4.78.55,5.88,3.51a16.91,16.91,0,0,0,.7-6.94c.45-.67,3.29,2.8,5.37,5,.35-2.53,3.83-7.53,1.5-10.73q.72-.69,4.85.6c-.09-1.31-5.41-4.92-7.65-6.56,3.51-.43,3.64-1.86,5.42-4-2.42-.2-2.11-2-4.92-3.27-1.09-.7-2-.12,1.11-1.17-3.64-.79-3.05-1.85-7.34-.5a7.87,7.87,0,0,1-.46-3.84c-1.77.24-3.72,2.43-5,3.94,0,0-1.24-.66-1.74-5.13-1.58,1.79-1.78,3-2.22,5.16a8.69,8.69,0,0,1-3.43-1.69c-1.82,3.84-2,7.45,4.46,4.79-.14.8-2.72,1.89-5.57,2.89-2.11.74-6.28,2-7.6,2.48.59.86,2.67,2.06,2.3,3.59s-1.9,2.71-6.09,3.57l1.49,1.34c3.78,3.4,15.36,1.31,18.62-1.15-3.18,3.38-9.72,3.66-14.12,4.18Zm8,4a11.88,11.88,0,0,1-5.16-.46c-1.89-.71-2.61-1.95-3.73-2.95a6.2,6.2,0,0,1-2.44-1l-4.29-2.78c-1.49-1-1.28-4.51-.79-6.8a1.15,1.15,0,0,1,.81-1c1.44-.47,10.89-2.92,11.17-4.47.56-3.11,1.87-9.29,4.85-11.28.25-.17-2.14-15.12-2.36-16.3-.13-.66,9.06,4.23,12.23,11.05,2.4.23,3-.13,5.2.89,1.92-1.24,3.86-6.46,4.65-10.68.08-.4.62-.49,1-.4s.51.46.68.81c2.6,5.2,7.19,17.51,5.3,24.17,1,6.42,1.84,3.94,4.05,9,.76,8.44-.67.59-1.85,6.62a1.67,1.67,0,0,1-.71,1.23c-.79.84-.76.54-1.46,1.7a28.73,28.73,0,0,1-14.57,7.1c-1.65.28.12-2.35-7.77-3.49a49,49,0,0,1-4.82-.93Z"/><path class="cls-9" d="M260.21,174.72a10.1,10.1,0,0,0-5.18-4.31c1.08-2.12,2.42-4.4,2.61-5.94,2,4.95,3.11,9.28,2.57,10.25Z"/><path class="cls-9" d="M242.88,168.63a25.76,25.76,0,0,0-4.54-5.65,40,40,0,0,1,1,7.75c1.12-.65,2.36-2.09,3.51-2.1Z"/><path class="cls-5" d="M244.41,183.45c-2.5,2-2.37,1.08-1.52-1.35a18.1,18.1,0,0,0,4-1.59,6.28,6.28,0,0,1,4.54,2.34c-2.81,1.23-5.17,1.42-7.06.6Z"/><path class="cls-5" d="M246.06,185.31c-1.69.26-2.95-.45-2.82-1.59s1.61-2.27,3.3-2.53,3,.45,2.82,1.59-1.61,2.27-3.3,2.53Z"/><path class="cls-18" d="M246.14,184.69c-1.18.18-2.06-.32-2-1.11s1.12-1.58,2.3-1.76,2.06.31,2,1.1-1.12,1.58-2.29,1.77Z"/><path class="cls-5" d="M245.67,183.81c-.81.13-1.41-.21-1.35-.75a1.8,1.8,0,0,1,1.58-1.21c.8-.12,1.4.22,1.34.76s-.77,1.08-1.57,1.2Z"/><path class="cls-9" d="M247.27,183.26a.72.72,0,0,1-.78-.69.78.78,0,0,1,.73-.8.72.72,0,0,1,.77.69.77.77,0,0,1-.72.8Z"/><path class="cls-5" d="M234.12,184.2c1.27.19,2.83.49,2.51.17-1.83-1.91-1.34-1.89-1.45-2.94a16.8,16.8,0,0,1-2.56-.67l-.88,3.52a2.53,2.53,0,0,0,2.38-.08Z"/><path class="cls-5" d="M233.08,185.14c1.44,0,2.46-.85,2.29-2a2.9,2.9,0,0,0-2.84-2.06l-.92,3.67a3.46,3.46,0,0,0,1.47.36Z"/><path class="cls-18" d="M233,184.53c1,0,1.72-.6,1.6-1.37a2.05,2.05,0,0,0-2-1.44h-.16l-.62,2.45a2.52,2.52,0,0,0,1.22.36Z"/><path class="cls-5" d="M233.75,183.59c.69,0,1.18-.4,1.09-.93a1.4,1.4,0,0,0-1.39-1c-.69,0-1.17.41-1.09.94a1.39,1.39,0,0,0,1.39,1Z"/><path class="cls-9" d="M232.21,183.16a.75.75,0,0,0,.61-.8.71.71,0,0,0-.43-.67l-.37,1.45a.58.58,0,0,0,.19,0Z"/><path class="cls-5" d="M261.89,188.28c.21,3.72,1.12,5.71,2.72,6q.24.38.51.75l-9.57,5.34q-.7,3.79-7.15,7.24a7.28,7.28,0,0,0-6.87-2.75c.33-.79-1.3-1-4.87-.73a2.61,2.61,0,0,1,3,1.93c-3.32,5.16,1.77,7.29-.27,10.18q8.49-1.26,10.8-3.09a9.26,9.26,0,0,0,2.47.66c-.17-2.56.93-2.78,1.94-3.81,4.15,2.46,3,.68,6.16,1.39-.49-3.51.27-1.7.61-4.57,3.66,3.39,2.31.68,3.05,2.83,1.34-4.18,2.94-5.91,1.32-10.53a5.18,5.18,0,0,1,3.67,4.23,14.64,14.64,0,0,0,.64-3h0q.91-1.72.68-7.33a6,6,0,0,1,1.45,2.19,21.83,21.83,0,0,0-4.69-13.53,8.06,8.06,0,0,1,2.95.6q-1.59-3.62-7.69-6.58a20.74,20.74,0,0,0-.85,12.6Z"/><path class="cls-9" d="M241.45,205.73c-2.53,5.17,1.49,5.74.1,8.67a11.4,11.4,0,0,0,5.44-2.61c.87-.92,1.62-2.65-.39-4.85.51,1.74-.54,3.38-1.95,4.62a25.54,25.54,0,0,0,.6-3c.07-1.62.09-2.56-3.8-2.83Z"/><path class="cls-9" d="M269.2,200.75c-.4-6.76-1-10.53-2-13.47-.17-.47.55-.15,1,.35.31.31-1.52-2.56-1.62-2.94-.37-.68-.74-1.32-1.08-1.91a16.64,16.64,0,0,0-6.05-5.49c2-1.48,7.72,2.11,8.95,3.78q-3.34-1.4-3.78-1.2a21.08,21.08,0,0,1,1.75,2.84,30.71,30.71,0,0,1,4.22,8.7,25.77,25.77,0,0,0-2-2.19q1.63,7.35.6,11.53Z"/><path class="cls-5" d="M241.08,218.23c-1.61-1.37-2.67-4.37-1.58-5.09,13.19-.59,22.61-5.9,26.77-11.26,2.43,1.4,3.28,2.73,2.53,4-4.92,6.56-14.39,11.56-27.72,12.38Z"/><path class="cls-9" d="M241.28,214.52c8.06-.66,17.07-3.24,22.89-9.12a33.27,33.27,0,0,1-7.71,4.82A46.9,46.9,0,0,1,241,214.13a3.68,3.68,0,0,0,.24.39Z"/><path class="cls-9" d="M242.76,217.17c8.06-.67,17.08-3.25,22.9-9.13a33.49,33.49,0,0,1-7.71,4.82,46.78,46.78,0,0,1-15.43,3.92l.24.39Z"/><path class="cls-19" d="M241.3,206.84a6.67,6.67,0,0,1,1.51,1,4.79,4.79,0,0,1,1,1.29,2.62,2.62,0,0,1,.35,1.13,13.48,13.48,0,0,1-.05,1.45,1.93,1.93,0,0,0,0,.64c0,.06.09,0,.33-.09a2.15,2.15,0,0,1,.86-.17c.19,0,.17.27.44.49l.14.09a12.11,12.11,0,0,0,1.12-.84c.87-.92,1.62-2.65-.39-4.85.51,1.74-.54,3.38-1.95,4.62a25.54,25.54,0,0,0,.6-3c.07-1.62.09-2.56-3.8-2.83-.17.35-.31.68-.43,1l.28.12Z"/><path class="cls-18" d="M247.71,216.13a27.07,27.07,0,1,1,27.07-27.07,27.07,27.07,0,0,1-27.07,27.07Z"/><path class="cls-9" d="M221.19,190.2c.33-1.08.37,0,1.45-.36a95,95,0,0,1,9.37-2.58c.5-.09,1-2.1,1.07-2.81.72-1.63,0-3.41.32-4.75s1.7-2.2,2.39-3.18c13.42-19,26.15,16.8,28.27,16.31a7.18,7.18,0,0,1,1.85.94c1.29,1.09-.22,4.33-.4,5.24a1.64,1.64,0,0,1-.71,1.23c-.79.84-.76.55-1.46,1.7a28.71,28.71,0,0,1-14.57,7.11c-1.65.28.12-2.35-7.77-3.49-2.42-.35-4.63-1.49-6.83-1.48a8,8,0,0,1-5.38-2.15c-4.23-3.78-9.51-5.52-7.6-11.73Z"/><path class="cls-19" d="M228.8,201.41a6,6,0,0,0,2.44.05,19.67,19.67,0,0,0,2.93-.62,22.23,22.23,0,0,0,4.09-1.49,18.21,18.21,0,0,0,3.05-2c.59-.47.66-.53,0-.24a33.29,33.29,0,0,1-3.83,1.43,42.71,42.71,0,0,1-5.42,1.1c-1.65.24-2.91.36-3.6.45s-.81.15-.71.41a1.76,1.76,0,0,0,1.07.94Z"/><path class="cls-10" d="M228.23,200.58c1.07,1.28,1.62,2.46,3.18,3a19.18,19.18,0,0,0,2.79.2l8.48.74c.79.05,4.78.56,5.88,3.51a16.87,16.87,0,0,0,.7-6.94c.45-.67,3.29,2.8,5.37,5,.35-2.52,3.83-7.53,1.5-10.73q.72-.69,4.85.61c-.09-1.31-5.41-4.93-7.65-6.57,3.51-.42,3.64-1.86,5.42-4-2.42-.21-2.11-2-4.92-3.27-1.09-.71-2-.13,1.11-1.18-3.64-.78-3.05-1.84-7.34-.5a7.84,7.84,0,0,1-.46-3.83c-1.77.24-3.72,2.42-5,3.93,0,0-1.24-.66-1.74-5.12-1.58,1.79-1.78,3-2.22,5.15a8.56,8.56,0,0,1-3.43-1.69c-1.82,3.85-2,7.46,4.46,4.79-.14.8-2.72,1.89-5.57,2.9-2.11.74-6.28,1.94-7.6,2.48.59.85,2.67,2.05,2.3,3.58s-1.9,2.72-6.09,3.57l1.49,1.34c3.78,3.4,15.36,1.32,18.62-1.14-3.18,3.38-9.72,3.65-14.12,4.17Zm8,4a11.88,11.88,0,0,1-5.16-.47c-1.89-.7-2.61-1.94-3.73-2.94a6.35,6.35,0,0,1-2.44-1l-4.29-2.79c-1.49-1-1.28-4.5-.79-6.8a1.13,1.13,0,0,1,.81-1c1.44-.48,10.89-2.92,11.17-4.48.56-3.1,1.87-9.29,4.85-11.28.25-.17-2.14-15.11-2.36-16.29-.13-.67,9.06,4.23,12.23,11,2.4.23,3-.12,5.2.9,1.92-1.24,3.86-6.47,4.65-10.69.08-.4.62-.49,1-.4s.51.47.68.81c2.6,5.2,7.19,17.51,5.3,24.17,1,6.42,1.84,3.94,4.05,9,.76,8.45-.67.59-1.85,6.62a1.66,1.66,0,0,1-.71,1.23c-.79.84-.76.55-1.46,1.7a28.71,28.71,0,0,1-14.57,7.11c-1.65.28.12-2.35-7.77-3.49-1.67-.25-3.29-.56-4.82-.93Z"/><path class="cls-9" d="M260.21,175.35A10.18,10.18,0,0,0,255,171c1.08-2.12,2.42-4.39,2.61-5.94,2,5,3.11,9.29,2.57,10.26Z"/><path class="cls-9" d="M242.88,169.25a25.67,25.67,0,0,0-4.54-5.64,39.91,39.91,0,0,1,1,7.74c1.12-.64,2.36-2.08,3.51-2.1Z"/><path class="cls-5" d="M244.41,184.08c-2.5,2-2.37,1.07-1.52-1.35a18.1,18.1,0,0,0,4-1.59,6.21,6.21,0,0,1,4.54,2.34c-2.81,1.22-5.17,1.42-7.06.6Z"/><path class="cls-5" d="M246.06,185.93c-1.69.26-2.95-.45-2.82-1.58s1.61-2.27,3.3-2.53,3,.45,2.82,1.58-1.61,2.27-3.3,2.53Z"/><path class="cls-18" d="M246.14,185.31c-1.18.18-2.06-.31-2-1.11s1.12-1.58,2.3-1.76,2.06.31,2,1.11-1.12,1.58-2.29,1.76Z"/><path class="cls-5" d="M245.67,184.44c-.81.12-1.41-.22-1.35-.76s.77-1.08,1.58-1.21,1.4.22,1.34.76-.77,1.08-1.57,1.21Z"/><path class="cls-9" d="M247.27,183.89a.73.73,0,0,1-.78-.7.79.79,0,0,1,.73-.8.72.72,0,0,1,.77.7.79.79,0,0,1-.72.8Z"/><path class="cls-5" d="M234.12,184.83c1.27.19,2.83.48,2.51.16-1.83-1.91-1.34-1.89-1.45-2.93a16.48,16.48,0,0,1-2.56-.68l-.88,3.52a2.56,2.56,0,0,0,2.38-.07Z"/><path class="cls-5" d="M233.08,185.76c1.44,0,2.46-.85,2.29-2a2.92,2.92,0,0,0-2.84-2.07l-.92,3.68a3.61,3.61,0,0,0,1.47.35Z"/><path class="cls-18" d="M233,185.15c1,0,1.72-.59,1.6-1.37a2.06,2.06,0,0,0-2-1.44h-.16l-.62,2.46a2.51,2.51,0,0,0,1.22.35Z"/><path class="cls-5" d="M233.75,184.22c.69,0,1.18-.41,1.09-.94a1.38,1.38,0,0,0-1.39-1c-.69,0-1.17.4-1.09.93a1.41,1.41,0,0,0,1.39,1Z"/><path class="cls-9" d="M232.21,183.78a.74.74,0,0,0,.61-.8.72.72,0,0,0-.43-.67l-.37,1.45a.4.4,0,0,0,.19,0Z"/><path class="cls-5" d="M261.89,188.9q.32,5.58,2.72,6c.16.26.33.51.51.76L255.55,201q-.7,3.78-7.15,7.24a7.26,7.26,0,0,0-6.87-2.75c.33-.8-1.3-1-4.87-.74a2.61,2.61,0,0,1,3,1.94c-3.32,5.15,1.77,7.29-.27,10.17q8.49-1.26,10.8-3.08a8.9,8.9,0,0,0,2.47.65c-.17-2.56.93-2.78,1.94-3.81,4.15,2.46,3,.68,6.16,1.4-.49-3.51.27-1.7.61-4.58,3.66,3.39,2.31.68,3.05,2.84,1.34-4.19,2.94-5.92,1.32-10.53A5.17,5.17,0,0,1,269.4,204a14.64,14.64,0,0,0,.64-3h0q.91-1.72.68-7.33a6,6,0,0,1,1.45,2.19,21.82,21.82,0,0,0-4.69-13.52,7.63,7.63,0,0,1,2.95.6q-1.59-3.63-7.69-6.59a20.75,20.75,0,0,0-.85,12.6Z"/><path class="cls-9" d="M241.45,206.35c-2.53,5.17,1.49,5.74.1,8.68a11.59,11.59,0,0,0,5.44-2.61c.87-.92,1.62-2.66-.39-4.86.51,1.74-.54,3.39-1.95,4.62a25.13,25.13,0,0,0,.6-3c.07-1.62.09-2.55-3.8-2.83Z"/><path class="cls-9" d="M269.2,201.38c-.4-6.76-1-10.54-2-13.47-.17-.47.55-.15,1,.34.31.31-1.52-2.56-1.62-2.94-.37-.68-.74-1.31-1.08-1.9a16.58,16.58,0,0,0-6.05-5.5c2-1.47,7.72,2.12,8.95,3.78-2.23-.93-3.49-1.32-3.78-1.19a20.47,20.47,0,0,1,1.75,2.83,30.71,30.71,0,0,1,4.22,8.7,23.72,23.72,0,0,0-2-2.18q1.63,7.34.6,11.53Z"/><path class="cls-5" d="M241.08,218.85c-1.61-1.36-2.67-4.37-1.58-5.08,13.19-.6,22.61-5.9,26.77-11.26,2.43,1.4,3.28,2.72,2.53,4-4.92,6.56-14.39,11.57-27.72,12.38Z"/><path class="cls-9" d="M241.28,215.15c8.06-.67,17.07-3.25,22.89-9.13a33.27,33.27,0,0,1-7.71,4.82A46.67,46.67,0,0,1,241,214.76c.07.13.16.26.24.39Z"/><path class="cls-9" d="M242.76,217.79c8.06-.67,17.08-3.24,22.9-9.13a33.19,33.19,0,0,1-7.71,4.83,47,47,0,0,1-15.43,3.91l.24.39Z"/><path class="cls-19" d="M241.3,207.46a6.75,6.75,0,0,1,1.51,1,4.5,4.5,0,0,1,1,1.29,2.58,2.58,0,0,1,.35,1.13,13.57,13.57,0,0,1-.05,1.45,1.88,1.88,0,0,0,0,.63c0,.06.09,0,.33-.09a2,2,0,0,1,.86-.16c.19,0,.17.26.44.49l.14.09c.38-.26.75-.54,1.12-.84.87-.92,1.62-2.66-.39-4.86.51,1.74-.54,3.39-1.95,4.62a25.13,25.13,0,0,0,.6-3c.07-1.62.09-2.55-3.8-2.83-.17.35-.31.68-.43,1l.28.12Z"/><path class="cls-18" d="M247.71,215.51a27.08,27.08,0,1,1,27.07-27.08,27.07,27.07,0,0,1-27.07,27.08Z"/><path class="cls-9" d="M221.19,189.57c.33-1.08.37,0,1.45-.35a95,95,0,0,1,9.37-2.58c.5-.09,1-2.11,1.07-2.81.72-1.63,0-3.42.32-4.75s1.7-2.2,2.39-3.18c13.42-19,26.15,16.8,28.27,16.3a7.88,7.88,0,0,1,1.85.94c1.29,1.1-.22,4.34-.4,5.25a1.67,1.67,0,0,1-.71,1.23c-.79.84-.76.54-1.46,1.7a28.73,28.73,0,0,1-14.57,7.1c-1.65.28.12-2.35-7.77-3.49-2.42-.35-4.63-1.48-6.83-1.48a7.89,7.89,0,0,1-5.38-2.14c-4.23-3.79-9.51-5.53-7.6-11.74Z"/><path class="cls-19" d="M228.8,200.79a6.14,6.14,0,0,0,2.44.05,21.23,21.23,0,0,0,2.93-.63,22.23,22.23,0,0,0,4.09-1.49,18.21,18.21,0,0,0,3.05-2c.59-.47.66-.53,0-.24a31.47,31.47,0,0,1-3.83,1.43A42.71,42.71,0,0,1,232,199c-1.65.24-2.91.36-3.6.45s-.81.15-.71.42a1.79,1.79,0,0,0,1.07.94Z"/><path class="cls-10" d="M228.23,200c1.07,1.28,1.62,2.46,3.18,3a16.73,16.73,0,0,0,2.79.2l8.48.75c.79.05,4.78.55,5.88,3.51a16.91,16.91,0,0,0,.7-6.94c.45-.67,3.29,2.8,5.37,5,.35-2.53,3.83-7.53,1.5-10.73q.72-.69,4.85.6c-.09-1.31-5.41-4.92-7.65-6.56,3.51-.43,3.64-1.86,5.42-4-2.42-.2-2.11-2-4.92-3.27-1.09-.7-2-.12,1.11-1.17-3.64-.79-3.05-1.85-7.34-.5a7.87,7.87,0,0,1-.46-3.84c-1.77.24-3.72,2.43-5,3.94,0,0-1.24-.66-1.74-5.13-1.58,1.79-1.78,3-2.22,5.16a8.69,8.69,0,0,1-3.43-1.69c-1.82,3.84-2,7.45,4.46,4.79-.14.8-2.72,1.89-5.57,2.89-2.11.74-6.28,2-7.6,2.48.59.86,2.67,2.06,2.3,3.59s-1.9,2.71-6.09,3.57l1.49,1.34c3.78,3.4,15.36,1.31,18.62-1.15-3.18,3.38-9.72,3.66-14.12,4.18Zm8,4a11.88,11.88,0,0,1-5.16-.46c-1.89-.71-2.61-1.95-3.73-2.95a6.2,6.2,0,0,1-2.44-1l-4.29-2.78c-1.49-1-1.28-4.51-.79-6.8a1.15,1.15,0,0,1,.81-1c1.44-.47,10.89-2.92,11.17-4.47.56-3.11,1.87-9.29,4.85-11.28.25-.17-2.14-15.12-2.36-16.3-.13-.66,9.06,4.23,12.23,11.05,2.4.23,3-.13,5.2.89,1.92-1.24,3.86-6.46,4.65-10.68.08-.4.62-.49,1-.4s.51.46.68.81c2.6,5.2,7.19,17.51,5.3,24.17,1,6.42,1.84,3.94,4.05,9,.76,8.44-.67.59-1.85,6.62a1.67,1.67,0,0,1-.71,1.23c-.79.84-.76.54-1.46,1.7a28.73,28.73,0,0,1-14.57,7.1c-1.65.28.12-2.35-7.77-3.49a49,49,0,0,1-4.82-.93Z"/><path class="cls-9" d="M260.21,174.72a10.1,10.1,0,0,0-5.18-4.31c1.08-2.12,2.42-4.4,2.61-5.94,2,4.95,3.11,9.28,2.57,10.25Z"/><path class="cls-9" d="M242.88,168.63a25.76,25.76,0,0,0-4.54-5.65,40,40,0,0,1,1,7.75c1.12-.65,2.36-2.09,3.51-2.1Z"/><path class="cls-5" d="M244.41,183.45c-2.5,2-2.37,1.08-1.52-1.35a18.1,18.1,0,0,0,4-1.59,6.28,6.28,0,0,1,4.54,2.34c-2.81,1.23-5.17,1.42-7.06.6Z"/><path class="cls-5" d="M246.06,185.31c-1.69.26-2.95-.45-2.82-1.59s1.61-2.27,3.3-2.53,3,.45,2.82,1.59-1.61,2.27-3.3,2.53Z"/><path class="cls-18" d="M246.14,184.69c-1.18.18-2.06-.32-2-1.11s1.12-1.58,2.3-1.76,2.06.31,2,1.1-1.12,1.58-2.29,1.77Z"/><path class="cls-5" d="M245.67,183.81c-.81.13-1.41-.21-1.35-.75a1.8,1.8,0,0,1,1.58-1.21c.8-.12,1.4.22,1.34.76s-.77,1.08-1.57,1.2Z"/><path class="cls-9" d="M247.27,183.26a.72.72,0,0,1-.78-.69.78.78,0,0,1,.73-.8.72.72,0,0,1,.77.69.77.77,0,0,1-.72.8Z"/><path class="cls-5" d="M234.12,184.2c1.27.19,2.83.49,2.51.17-1.83-1.91-1.34-1.89-1.45-2.94a16.8,16.8,0,0,1-2.56-.67l-.88,3.52a2.53,2.53,0,0,0,2.38-.08Z"/><path class="cls-5" d="M233.08,185.14c1.44,0,2.46-.85,2.29-2a2.9,2.9,0,0,0-2.84-2.06l-.92,3.67a3.46,3.46,0,0,0,1.47.36Z"/><path class="cls-18" d="M233,184.53c1,0,1.72-.6,1.6-1.37a2.05,2.05,0,0,0-2-1.44h-.16l-.62,2.45a2.52,2.52,0,0,0,1.22.36Z"/><path class="cls-5" d="M233.75,183.59c.69,0,1.18-.4,1.09-.93a1.4,1.4,0,0,0-1.39-1c-.69,0-1.17.41-1.09.94a1.39,1.39,0,0,0,1.39,1Z"/><path class="cls-9" d="M232.21,183.16a.75.75,0,0,0,.61-.8.71.71,0,0,0-.43-.67l-.37,1.45a.58.58,0,0,0,.19,0Z"/><path class="cls-5" d="M261.89,188.28c.21,3.72,1.12,5.71,2.72,6q.24.38.51.75l-9.57,5.34q-.7,3.79-7.15,7.24a7.28,7.28,0,0,0-6.87-2.75c.33-.79-1.3-1-4.87-.73a2.61,2.61,0,0,1,3,1.93c-3.32,5.16,1.77,7.29-.27,10.18q8.49-1.26,10.8-3.09a9.26,9.26,0,0,0,2.47.66c-.17-2.56.93-2.78,1.94-3.81,4.15,2.46,3,.68,6.16,1.39-.49-3.51.27-1.7.61-4.57,3.66,3.39,2.31.68,3.05,2.83,1.34-4.18,2.94-5.91,1.32-10.53a5.18,5.18,0,0,1,3.67,4.23,14.64,14.64,0,0,0,.64-3h0q.91-1.72.68-7.33a6,6,0,0,1,1.45,2.19,21.83,21.83,0,0,0-4.69-13.53,8.06,8.06,0,0,1,2.95.6q-1.59-3.62-7.69-6.58a20.74,20.74,0,0,0-.85,12.6Z"/><path class="cls-9" d="M241.45,205.73c-2.53,5.17,1.49,5.74.1,8.67a11.4,11.4,0,0,0,5.44-2.61c.87-.92,1.62-2.65-.39-4.85.51,1.74-.54,3.38-1.95,4.62a25.54,25.54,0,0,0,.6-3c.07-1.62.09-2.56-3.8-2.83Z"/><path class="cls-9" d="M269.2,200.75c-.4-6.76-1-10.53-2-13.47-.17-.47.55-.15,1,.35.31.31-1.52-2.56-1.62-2.94-.37-.68-.74-1.32-1.08-1.91a16.64,16.64,0,0,0-6.05-5.49c2-1.48,7.72,2.11,8.95,3.78q-3.34-1.4-3.78-1.2a21.08,21.08,0,0,1,1.75,2.84,30.71,30.71,0,0,1,4.22,8.7,25.77,25.77,0,0,0-2-2.19q1.63,7.35.6,11.53Z"/><path class="cls-5" d="M241.08,218.23c-1.61-1.37-2.67-4.37-1.58-5.09,13.19-.59,22.61-5.9,26.77-11.26,2.43,1.4,3.28,2.73,2.53,4-4.92,6.56-14.39,11.56-27.72,12.38Z"/><path class="cls-9" d="M241.28,214.52c8.06-.66,17.07-3.24,22.89-9.12a33.27,33.27,0,0,1-7.71,4.82A46.9,46.9,0,0,1,241,214.13a3.68,3.68,0,0,0,.24.39Z"/><path class="cls-9" d="M242.76,217.17c8.06-.67,17.08-3.25,22.9-9.13a33.49,33.49,0,0,1-7.71,4.82,46.78,46.78,0,0,1-15.43,3.92l.24.39Z"/><path class="cls-19" d="M241.3,206.84a6.67,6.67,0,0,1,1.51,1,4.79,4.79,0,0,1,1,1.29,2.62,2.62,0,0,1,.35,1.13,13.48,13.48,0,0,1-.05,1.45,1.93,1.93,0,0,0,0,.64c0,.06.09,0,.33-.09a2.15,2.15,0,0,1,.86-.17c.19,0,.17.27.44.49l.14.09a12.11,12.11,0,0,0,1.12-.84c.87-.92,1.62-2.65-.39-4.85.51,1.74-.54,3.38-1.95,4.62a25.54,25.54,0,0,0,.6-3c.07-1.62.09-2.56-3.8-2.83-.17.35-.31.68-.43,1l.28.12Z"/><path class="cls-18" d="M247.71,216.13a27.07,27.07,0,1,1,27.07-27.07,27.07,27.07,0,0,1-27.07,27.07Z"/><path class="cls-9" d="M221.19,190.2c.33-1.08.37,0,1.45-.36a95,95,0,0,1,9.37-2.58c.5-.09,1-2.1,1.07-2.81.72-1.63,0-3.41.32-4.75s1.7-2.2,2.39-3.18c13.42-19,26.15,16.8,28.27,16.31a7.18,7.18,0,0,1,1.85.94c1.29,1.09-.22,4.33-.4,5.24a1.64,1.64,0,0,1-.71,1.23c-.79.84-.76.55-1.46,1.7a28.71,28.71,0,0,1-14.57,7.11c-1.65.28.12-2.35-7.77-3.49-2.42-.35-4.63-1.49-6.83-1.48a8,8,0,0,1-5.38-2.15c-4.23-3.78-9.51-5.52-7.6-11.73Z"/><path class="cls-19" d="M228.8,201.41a6,6,0,0,0,2.44.05,19.67,19.67,0,0,0,2.93-.62,22.23,22.23,0,0,0,4.09-1.49,18.21,18.21,0,0,0,3.05-2c.59-.47.66-.53,0-.24a33.29,33.29,0,0,1-3.83,1.43,42.71,42.71,0,0,1-5.42,1.1c-1.65.24-2.91.36-3.6.45s-.81.15-.71.41a1.76,1.76,0,0,0,1.07.94Z"/><path class="cls-10" d="M228.23,200.58c1.07,1.28,1.62,2.46,3.18,3a19.18,19.18,0,0,0,2.79.2l8.48.74c.79.05,4.78.56,5.88,3.51a16.87,16.87,0,0,0,.7-6.94c.45-.67,3.29,2.8,5.37,5,.35-2.52,3.83-7.53,1.5-10.73q.72-.69,4.85.61c-.09-1.31-5.41-4.93-7.65-6.57,3.51-.42,3.64-1.86,5.42-4-2.42-.21-2.11-2-4.92-3.27-1.09-.71-2-.13,1.11-1.18-3.64-.78-3.05-1.84-7.34-.5a7.84,7.84,0,0,1-.46-3.83c-1.77.24-3.72,2.42-5,3.93,0,0-1.24-.66-1.74-5.12-1.58,1.79-1.78,3-2.22,5.15a8.56,8.56,0,0,1-3.43-1.69c-1.82,3.85-2,7.46,4.46,4.79-.14.8-2.72,1.89-5.57,2.9-2.11.74-6.28,1.94-7.6,2.48.59.85,2.67,2.05,2.3,3.58s-1.9,2.72-6.09,3.57l1.49,1.34c3.78,3.4,15.36,1.32,18.62-1.14-3.18,3.38-9.72,3.65-14.12,4.17Zm8,4a11.88,11.88,0,0,1-5.16-.47c-1.89-.7-2.61-1.94-3.73-2.94a6.35,6.35,0,0,1-2.44-1l-4.29-2.79c-1.49-1-1.28-4.5-.79-6.8a1.13,1.13,0,0,1,.81-1c1.44-.48,10.89-2.92,11.17-4.48.56-3.1,1.87-9.29,4.85-11.28.25-.17-2.14-15.11-2.36-16.29-.13-.67,9.06,4.23,12.23,11,2.4.23,3-.12,5.2.9,1.92-1.24,3.86-6.47,4.65-10.69.08-.4.62-.49,1-.4s.51.47.68.81c2.6,5.2,7.19,17.51,5.3,24.17,1,6.42,1.84,3.94,4.05,9,.76,8.45-.67.59-1.85,6.62a1.66,1.66,0,0,1-.71,1.23c-.79.84-.76.55-1.46,1.7a28.71,28.71,0,0,1-14.57,7.11c-1.65.28.12-2.35-7.77-3.49-1.67-.25-3.29-.56-4.82-.93Z"/><path class="cls-9" d="M260.21,175.35A10.18,10.18,0,0,0,255,171c1.08-2.12,2.42-4.39,2.61-5.94,2,5,3.11,9.29,2.57,10.26Z"/><path class="cls-9" d="M242.88,169.25a25.67,25.67,0,0,0-4.54-5.64,39.91,39.91,0,0,1,1,7.74c1.12-.64,2.36-2.08,3.51-2.1Z"/><path class="cls-5" d="M244.41,184.08c-2.5,2-2.37,1.07-1.52-1.35a18.1,18.1,0,0,0,4-1.59,6.21,6.21,0,0,1,4.54,2.34c-2.81,1.22-5.17,1.42-7.06.6Z"/><path class="cls-5" d="M246.06,185.93c-1.69.26-2.95-.45-2.82-1.58s1.61-2.27,3.3-2.53,3,.45,2.82,1.58-1.61,2.27-3.3,2.53Z"/><path class="cls-18" d="M246.14,185.31c-1.18.18-2.06-.31-2-1.11s1.12-1.58,2.3-1.76,2.06.31,2,1.11-1.12,1.58-2.29,1.76Z"/><path class="cls-5" d="M245.67,184.44c-.81.12-1.41-.22-1.35-.76s.77-1.08,1.58-1.21,1.4.22,1.34.76-.77,1.08-1.57,1.21Z"/><path class="cls-9" d="M247.27,183.89a.73.73,0,0,1-.78-.7.79.79,0,0,1,.73-.8.72.72,0,0,1,.77.7.79.79,0,0,1-.72.8Z"/><path class="cls-5" d="M234.12,184.83c1.27.19,2.83.48,2.51.16-1.83-1.91-1.34-1.89-1.45-2.93a16.48,16.48,0,0,1-2.56-.68l-.88,3.52a2.56,2.56,0,0,0,2.38-.07Z"/><path class="cls-5" d="M233.08,185.76c1.44,0,2.46-.85,2.29-2a2.92,2.92,0,0,0-2.84-2.07l-.92,3.68a3.61,3.61,0,0,0,1.47.35Z"/><path class="cls-18" d="M233,185.15c1,0,1.72-.59,1.6-1.37a2.06,2.06,0,0,0-2-1.44h-.16l-.62,2.46a2.51,2.51,0,0,0,1.22.35Z"/><path class="cls-5" d="M233.75,184.22c.69,0,1.18-.41,1.09-.94a1.38,1.38,0,0,0-1.39-1c-.69,0-1.17.4-1.09.93a1.41,1.41,0,0,0,1.39,1Z"/><path class="cls-9" d="M232.21,183.78a.74.74,0,0,0,.61-.8.72.72,0,0,0-.43-.67l-.37,1.45a.4.4,0,0,0,.19,0Z"/><path class="cls-5" d="M261.89,188.9q.32,5.58,2.72,6c.16.26.33.51.51.76L255.55,201q-.7,3.78-7.15,7.24a7.26,7.26,0,0,0-6.87-2.75c.33-.8-1.3-1-4.87-.74a2.61,2.61,0,0,1,3,1.94c-3.32,5.15,1.77,7.29-.27,10.17q8.49-1.26,10.8-3.08a8.9,8.9,0,0,0,2.47.65c-.17-2.56.93-2.78,1.94-3.81,4.15,2.46,3,.68,6.16,1.4-.49-3.51.27-1.7.61-4.58,3.66,3.39,2.31.68,3.05,2.84,1.34-4.19,2.94-5.92,1.32-10.53A5.17,5.17,0,0,1,269.4,204a14.64,14.64,0,0,0,.64-3h0q.91-1.72.68-7.33a6,6,0,0,1,1.45,2.19,21.82,21.82,0,0,0-4.69-13.52,7.63,7.63,0,0,1,2.95.6q-1.59-3.63-7.69-6.59a20.75,20.75,0,0,0-.85,12.6Z"/><path class="cls-9" d="M241.45,206.35c-2.53,5.17,1.49,5.74.1,8.68a11.59,11.59,0,0,0,5.44-2.61c.87-.92,1.62-2.66-.39-4.86.51,1.74-.54,3.39-1.95,4.62a25.13,25.13,0,0,0,.6-3c.07-1.62.09-2.55-3.8-2.83Z"/><path class="cls-9" d="M269.2,201.38c-.4-6.76-1-10.54-2-13.47-.17-.47.55-.15,1,.34.31.31-1.52-2.56-1.62-2.94-.37-.68-.74-1.31-1.08-1.9a16.58,16.58,0,0,0-6.05-5.5c2-1.47,7.72,2.12,8.95,3.78-2.23-.93-3.49-1.32-3.78-1.19a20.47,20.47,0,0,1,1.75,2.83,30.71,30.71,0,0,1,4.22,8.7,23.72,23.72,0,0,0-2-2.18q1.63,7.34.6,11.53Z"/><path class="cls-5" d="M241.08,218.85c-1.61-1.36-2.67-4.37-1.58-5.08,13.19-.6,22.61-5.9,26.77-11.26,2.43,1.4,3.28,2.72,2.53,4-4.92,6.56-14.39,11.57-27.72,12.38Z"/><path class="cls-9" d="M241.28,215.15c8.06-.67,17.07-3.25,22.89-9.13a33.27,33.27,0,0,1-7.71,4.82A46.67,46.67,0,0,1,241,214.76c.07.13.16.26.24.39Z"/><path class="cls-9" d="M242.76,217.79c8.06-.67,17.08-3.24,22.9-9.13a33.19,33.19,0,0,1-7.71,4.83,47,47,0,0,1-15.43,3.91l.24.39Z"/><path class="cls-19" d="M241.3,207.46a6.75,6.75,0,0,1,1.51,1,4.5,4.5,0,0,1,1,1.29,2.58,2.58,0,0,1,.35,1.13,13.57,13.57,0,0,1-.05,1.45,1.88,1.88,0,0,0,0,.63c0,.06.09,0,.33-.09a2,2,0,0,1,.86-.16c.19,0,.17.26.44.49l.14.09c.38-.26.75-.54,1.12-.84.87-.92,1.62-2.66-.39-4.86.51,1.74-.54,3.39-1.95,4.62a25.13,25.13,0,0,0,.6-3c.07-1.62.09-2.55-3.8-2.83-.17.35-.31.68-.43,1l.28.12Z"/><path class="cls-18" d="M247.71,215.51a27.08,27.08,0,1,1,27.07-27.08,27.07,27.07,0,0,1-27.07,27.08Z"/><path class="cls-9" d="M221.19,189.57c.33-1.08.37,0,1.45-.35a95,95,0,0,1,9.37-2.58c.5-.09,1-2.11,1.07-2.81.72-1.63,0-3.42.32-4.75s1.7-2.2,2.39-3.18c13.42-19,26.15,16.8,28.27,16.3a7.88,7.88,0,0,1,1.85.94c1.29,1.1-.22,4.34-.4,5.25a1.67,1.67,0,0,1-.71,1.23c-.79.84-.76.54-1.46,1.7a28.73,28.73,0,0,1-14.57,7.1c-1.65.28.12-2.35-7.77-3.49-2.42-.35-4.63-1.48-6.83-1.48a7.89,7.89,0,0,1-5.38-2.14c-4.23-3.79-9.51-5.53-7.6-11.74Z"/><path class="cls-19" d="M228.8,200.79a6.14,6.14,0,0,0,2.44.05,21.23,21.23,0,0,0,2.93-.63,22.23,22.23,0,0,0,4.09-1.49,18.21,18.21,0,0,0,3.05-2c.59-.47.66-.53,0-.24a31.47,31.47,0,0,1-3.83,1.43A42.71,42.71,0,0,1,232,199c-1.65.24-2.91.36-3.6.45s-.81.15-.71.42a1.79,1.79,0,0,0,1.07.94Z"/><path class="cls-10" d="M228.23,200c1.07,1.28,1.62,2.46,3.18,3a16.73,16.73,0,0,0,2.79.2l8.48.75c.79.05,4.78.55,5.88,3.51a16.91,16.91,0,0,0,.7-6.94c.45-.67,3.29,2.8,5.37,5,.35-2.53,3.83-7.53,1.5-10.73q.72-.69,4.85.6c-.09-1.31-5.41-4.92-7.65-6.56,3.51-.43,3.64-1.86,5.42-4-2.42-.2-2.11-2-4.92-3.27-1.09-.7-2-.12,1.11-1.17-3.64-.79-3.05-1.85-7.34-.5a7.87,7.87,0,0,1-.46-3.84c-1.77.24-3.72,2.43-5,3.94,0,0-1.24-.66-1.74-5.13-1.58,1.79-1.78,3-2.22,5.16a8.69,8.69,0,0,1-3.43-1.69c-1.82,3.84-2,7.45,4.46,4.79-.14.8-2.72,1.89-5.57,2.89-2.11.74-6.28,2-7.6,2.48.59.86,2.67,2.06,2.3,3.59s-1.9,2.71-6.09,3.57l1.49,1.34c3.78,3.4,15.36,1.31,18.62-1.15-3.18,3.38-9.72,3.66-14.12,4.18Zm8,4a11.88,11.88,0,0,1-5.16-.46c-1.89-.71-2.61-1.95-3.73-2.95a6.2,6.2,0,0,1-2.44-1l-4.29-2.78c-1.49-1-1.28-4.51-.79-6.8a1.15,1.15,0,0,1,.81-1c1.44-.47,10.89-2.92,11.17-4.47.56-3.11,1.87-9.29,4.85-11.28.25-.17-2.14-15.12-2.36-16.3-.13-.66,9.06,4.23,12.23,11.05,2.4.23,3-.13,5.2.89,1.92-1.24,3.86-6.46,4.65-10.68.08-.4.62-.49,1-.4s.51.46.68.81c2.6,5.2,7.19,17.51,5.3,24.17,1,6.42,1.84,3.94,4.05,9,.76,8.44-.67.59-1.85,6.62a1.67,1.67,0,0,1-.71,1.23c-.79.84-.76.54-1.46,1.7a28.73,28.73,0,0,1-14.57,7.1c-1.65.28.12-2.35-7.77-3.49a49,49,0,0,1-4.82-.93Z"/><path class="cls-9" d="M260.21,174.72a10.1,10.1,0,0,0-5.18-4.31c1.08-2.12,2.42-4.4,2.61-5.94,2,4.95,3.11,9.28,2.57,10.25Z"/><path class="cls-9" d="M242.88,168.63a25.76,25.76,0,0,0-4.54-5.65,40,40,0,0,1,1,7.75c1.12-.65,2.36-2.09,3.51-2.1Z"/><path class="cls-5" d="M244.41,183.45c-2.5,2-2.37,1.08-1.52-1.35a18.1,18.1,0,0,0,4-1.59,6.28,6.28,0,0,1,4.54,2.34c-2.81,1.23-5.17,1.42-7.06.6Z"/><path class="cls-5" d="M246.06,185.31c-1.69.26-2.95-.45-2.82-1.59s1.61-2.27,3.3-2.53,3,.45,2.82,1.59-1.61,2.27-3.3,2.53Z"/><path class="cls-18" d="M246.14,184.69c-1.18.18-2.06-.32-2-1.11s1.12-1.58,2.3-1.76,2.06.31,2,1.1-1.12,1.58-2.29,1.77Z"/><path class="cls-5" d="M245.67,183.81c-.81.13-1.41-.21-1.35-.75a1.8,1.8,0,0,1,1.58-1.21c.8-.12,1.4.22,1.34.76s-.77,1.08-1.57,1.2Z"/><path class="cls-9" d="M247.27,183.26a.72.72,0,0,1-.78-.69.78.78,0,0,1,.73-.8.72.72,0,0,1,.77.69.77.77,0,0,1-.72.8Z"/><path class="cls-5" d="M234.12,184.2c1.27.19,2.83.49,2.51.17-1.83-1.91-1.34-1.89-1.45-2.94a16.8,16.8,0,0,1-2.56-.67l-.88,3.52a2.53,2.53,0,0,0,2.38-.08Z"/><path class="cls-5" d="M233.08,185.14c1.44,0,2.46-.85,2.29-2a2.9,2.9,0,0,0-2.84-2.06l-.92,3.67a3.46,3.46,0,0,0,1.47.36Z"/><path class="cls-18" d="M233,184.53c1,0,1.72-.6,1.6-1.37a2.05,2.05,0,0,0-2-1.44h-.16l-.62,2.45a2.52,2.52,0,0,0,1.22.36Z"/><path class="cls-5" d="M233.75,183.59c.69,0,1.18-.4,1.09-.93a1.4,1.4,0,0,0-1.39-1c-.69,0-1.17.41-1.09.94a1.39,1.39,0,0,0,1.39,1Z"/><path class="cls-9" d="M232.21,183.16a.75.75,0,0,0,.61-.8.71.71,0,0,0-.43-.67l-.37,1.45a.58.58,0,0,0,.19,0Z"/><path class="cls-5" d="M261.89,188.28c.21,3.72,1.12,5.71,2.72,6q.24.38.51.75l-9.57,5.34q-.7,3.79-7.15,7.24a7.28,7.28,0,0,0-6.87-2.75c.33-.79-1.3-1-4.87-.73a2.61,2.61,0,0,1,3,1.93c-3.32,5.16,1.77,7.29-.27,10.18q8.49-1.26,10.8-3.09a9.26,9.26,0,0,0,2.47.66c-.17-2.56.93-2.78,1.94-3.81,4.15,2.46,3,.68,6.16,1.39-.49-3.51.27-1.7.61-4.57,3.66,3.39,2.31.68,3.05,2.83,1.34-4.18,2.94-5.91,1.32-10.53a5.18,5.18,0,0,1,3.67,4.23,14.64,14.64,0,0,0,.64-3h0q.91-1.72.68-7.33a6,6,0,0,1,1.45,2.19,21.83,21.83,0,0,0-4.69-13.53,8.06,8.06,0,0,1,2.95.6q-1.59-3.62-7.69-6.58a20.74,20.74,0,0,0-.85,12.6Z"/><path class="cls-9" d="M241.45,205.73c-2.53,5.17,1.49,5.74.1,8.67a11.4,11.4,0,0,0,5.44-2.61c.87-.92,1.62-2.65-.39-4.85.51,1.74-.54,3.38-1.95,4.62a25.54,25.54,0,0,0,.6-3c.07-1.62.09-2.56-3.8-2.83Z"/><path class="cls-9" d="M269.2,200.75c-.4-6.76-1-10.53-2-13.47-.17-.47.55-.15,1,.35.31.31-1.52-2.56-1.62-2.94-.37-.68-.74-1.32-1.08-1.91a16.64,16.64,0,0,0-6.05-5.49c2-1.48,7.72,2.11,8.95,3.78q-3.34-1.4-3.78-1.2a21.08,21.08,0,0,1,1.75,2.84,30.71,30.71,0,0,1,4.22,8.7,25.77,25.77,0,0,0-2-2.19q1.63,7.35.6,11.53Z"/><path class="cls-5" d="M241.08,218.23c-1.61-1.37-2.67-4.37-1.58-5.09,13.19-.59,22.61-5.9,26.77-11.26,2.43,1.4,3.28,2.73,2.53,4-4.92,6.56-14.39,11.56-27.72,12.38Z"/><path class="cls-9" d="M241.28,214.52c8.06-.66,17.07-3.24,22.89-9.12a33.27,33.27,0,0,1-7.71,4.82A46.9,46.9,0,0,1,241,214.13a3.68,3.68,0,0,0,.24.39Z"/><path class="cls-9" d="M242.76,217.17c8.06-.67,17.08-3.25,22.9-9.13a33.49,33.49,0,0,1-7.71,4.82,46.78,46.78,0,0,1-15.43,3.92l.24.39Z"/><path class="cls-19" d="M241.3,206.84a6.67,6.67,0,0,1,1.51,1,4.79,4.79,0,0,1,1,1.29,2.62,2.62,0,0,1,.35,1.13,13.48,13.48,0,0,1-.05,1.45,1.93,1.93,0,0,0,0,.64c0,.06.09,0,.33-.09a2.15,2.15,0,0,1,.86-.17c.19,0,.17.27.44.49l.14.09a12.11,12.11,0,0,0,1.12-.84c.87-.92,1.62-2.65-.39-4.85.51,1.74-.54,3.38-1.95,4.62a25.54,25.54,0,0,0,.6-3c.07-1.62.09-2.56-3.8-2.83-.17.35-.31.68-.43,1l.28.12Z"/><path class="cls-18" d="M247.71,214.88a27.07,27.07,0,1,1,27.07-27.07,27.07,27.07,0,0,1-27.07,27.07Z"/><path class="cls-9" d="M221.19,189c.33-1.08.37,0,1.45-.35A92.47,92.47,0,0,1,232,186c.5-.08,1-2.1,1.07-2.81.72-1.62,0-3.41.32-4.74s1.7-2.21,2.39-3.19c13.42-19,26.15,16.81,28.27,16.31a7.18,7.18,0,0,1,1.85.94c1.29,1.09-.22,4.33-.4,5.24a1.64,1.64,0,0,1-.71,1.23c-.79.84-.76.55-1.46,1.7a28.63,28.63,0,0,1-14.57,7.11c-1.65.28.12-2.35-7.77-3.49-2.42-.35-4.63-1.48-6.83-1.48a8,8,0,0,1-5.38-2.15c-4.23-3.78-9.51-5.52-7.6-11.73Z"/><path class="cls-19" d="M228.8,200.17a6,6,0,0,0,2.44,0,19.67,19.67,0,0,0,2.93-.62,22.23,22.23,0,0,0,4.09-1.49,18.21,18.21,0,0,0,3.05-2c.59-.47.66-.53,0-.24a31.47,31.47,0,0,1-3.83,1.43,42.71,42.71,0,0,1-5.42,1.1c-1.65.24-2.91.36-3.6.45s-.81.15-.71.41a1.77,1.77,0,0,0,1.07.95Z"/><path class="cls-10" d="M228.23,199.34c1.07,1.28,1.62,2.45,3.18,3a17.87,17.87,0,0,0,2.79.2l8.48.74c.79.06,4.78.56,5.88,3.52a16.94,16.94,0,0,0,.7-6.95c.45-.67,3.29,2.81,5.37,5,.35-2.52,3.83-7.53,1.5-10.72q.72-.71,4.85.6c-.09-1.31-5.41-4.93-7.65-6.57,3.51-.42,3.64-1.86,5.42-4-2.42-.21-2.11-2-4.92-3.27-1.09-.7-2-.13,1.11-1.18-3.64-.78-3.05-1.84-7.34-.49a7.88,7.88,0,0,1-.46-3.84c-1.77.24-3.72,2.42-5,3.93,0,0-1.24-.66-1.74-5.12-1.58,1.79-1.78,3-2.22,5.15a8.68,8.68,0,0,1-3.43-1.68c-1.82,3.84-2,7.45,4.46,4.78-.14.8-2.72,1.9-5.57,2.9-2.11.74-6.28,1.94-7.6,2.48.59.85,2.67,2.05,2.3,3.59s-1.9,2.71-6.09,3.56l1.49,1.35c3.78,3.39,15.36,1.31,18.62-1.15-3.18,3.38-9.72,3.65-14.12,4.18Zm8,4a11.73,11.73,0,0,1-5.16-.47c-1.89-.7-2.61-1.94-3.73-2.94a6.35,6.35,0,0,1-2.44-1l-4.29-2.79c-1.49-1-1.28-4.5-.79-6.8a1.14,1.14,0,0,1,.81-1c1.44-.48,10.89-2.92,11.17-4.48.56-3.1,1.87-9.29,4.85-11.27.25-.17-2.14-15.12-2.36-16.3-.13-.66,9.06,4.23,12.23,11,2.4.23,3-.13,5.2.89,1.92-1.24,3.86-6.47,4.65-10.68.08-.4.62-.5,1-.4s.51.46.68.8c2.6,5.21,7.19,17.51,5.3,24.17,1,6.43,1.84,3.94,4.05,9,.76,8.45-.67.59-1.85,6.62a1.64,1.64,0,0,1-.71,1.23c-.79.84-.76.55-1.46,1.7a28.63,28.63,0,0,1-14.57,7.11c-1.65.28.12-2.35-7.77-3.49a49,49,0,0,1-4.82-.93Z"/><path class="cls-9" d="M260.21,174.1a10.1,10.1,0,0,0-5.18-4.31c1.08-2.13,2.42-4.4,2.61-5.95,2,5,3.11,9.29,2.57,10.26Z"/><path class="cls-9" d="M242.88,168a25.91,25.91,0,0,0-4.54-5.64,39.91,39.91,0,0,1,1,7.74c1.12-.64,2.36-2.08,3.51-2.1Z"/><path class="cls-5" d="M244.41,182.83c-2.5,2-2.37,1.07-1.52-1.35a18.1,18.1,0,0,0,4-1.59,6.21,6.21,0,0,1,4.54,2.34c-2.81,1.22-5.17,1.42-7.06.6Z"/><path class="cls-5" d="M246.06,184.69c-1.69.26-2.95-.45-2.82-1.59s1.61-2.27,3.3-2.53,3,.45,2.82,1.59-1.61,2.27-3.3,2.53Z"/><path class="cls-18" d="M246.14,184.06c-1.18.18-2.06-.31-2-1.1s1.12-1.59,2.3-1.77,2.06.32,2,1.11-1.12,1.58-2.29,1.76Z"/><path class="cls-5" d="M245.67,183.19c-.81.12-1.41-.21-1.35-.76a1.8,1.8,0,0,1,1.58-1.2c.8-.13,1.4.21,1.34.75s-.77,1.09-1.57,1.21Z"/><path class="cls-9" d="M247.27,182.64a.72.72,0,0,1-.78-.7.79.79,0,0,1,.73-.8.72.72,0,0,1,.77.7.79.79,0,0,1-.72.8Z"/><path class="cls-5" d="M234.12,183.58c1.27.19,2.83.48,2.51.16-1.83-1.9-1.34-1.89-1.45-2.93a18.12,18.12,0,0,1-2.56-.67l-.88,3.51a2.53,2.53,0,0,0,2.38-.07Z"/><path class="cls-5" d="M233.08,184.51c1.44,0,2.46-.85,2.29-2a2.92,2.92,0,0,0-2.84-2.07l-.92,3.68a3.61,3.61,0,0,0,1.47.35Z"/><path class="cls-18" d="M233,183.9c1,0,1.72-.59,1.6-1.37a2.06,2.06,0,0,0-2-1.44h-.16l-.62,2.46a2.51,2.51,0,0,0,1.22.35Z"/><path class="cls-5" d="M233.75,183c.69,0,1.18-.4,1.09-.94a1.38,1.38,0,0,0-1.39-1c-.69,0-1.17.4-1.09.93a1.4,1.4,0,0,0,1.39,1Z"/><path class="cls-9" d="M232.21,182.53a.73.73,0,0,0,.61-.8.72.72,0,0,0-.43-.67l-.37,1.46a.59.59,0,0,0,.19,0Z"/><path class="cls-5" d="M261.89,187.65q.32,5.58,2.72,6,.24.38.51.75l-9.57,5.34q-.7,3.8-7.15,7.24a7.26,7.26,0,0,0-6.87-2.75c.33-.79-1.3-1-4.87-.74a2.62,2.62,0,0,1,3,1.94c-3.32,5.15,1.77,7.29-.27,10.17q8.49-1.26,10.8-3.08a8.9,8.9,0,0,0,2.47.65c-.17-2.56.93-2.78,1.94-3.81,4.15,2.47,3,.68,6.16,1.4-.49-3.51.27-1.7.61-4.58,3.66,3.39,2.31.69,3.05,2.84,1.34-4.19,2.94-5.92,1.32-10.53a5.18,5.18,0,0,1,3.67,4.22,14.55,14.55,0,0,0,.64-3h0c.61-1.15.84-3.6.68-7.33a5.86,5.86,0,0,1,1.45,2.18A21.82,21.82,0,0,0,267.48,181a7.63,7.63,0,0,1,2.95.6q-1.59-3.62-7.69-6.59a20.75,20.75,0,0,0-.85,12.6Z"/><path class="cls-9" d="M241.45,205.1c-2.53,5.17,1.49,5.75.1,8.68a11.5,11.5,0,0,0,5.44-2.61c.87-.92,1.62-2.65-.39-4.85.51,1.74-.54,3.38-1.95,4.61a24.73,24.73,0,0,0,.6-3c.07-1.62.09-2.55-3.8-2.83Z"/><path class="cls-9" d="M269.2,200.13c-.4-6.76-1-10.54-2-13.47-.17-.47.55-.15,1,.35.31.3-1.52-2.57-1.62-2.94-.37-.68-.74-1.32-1.08-1.91a16.64,16.64,0,0,0-6.05-5.49c2-1.48,7.72,2.11,8.95,3.77-2.23-.92-3.49-1.32-3.78-1.19a20.47,20.47,0,0,1,1.75,2.83,30.84,30.84,0,0,1,4.22,8.7,23.72,23.72,0,0,0-2-2.18q1.63,7.34.6,11.53Z"/><path class="cls-5" d="M241.08,217.6c-1.61-1.36-2.67-4.37-1.58-5.08,13.19-.6,22.61-5.9,26.77-11.26,2.43,1.4,3.28,2.72,2.53,4-4.92,6.57-14.39,11.57-27.72,12.38Z"/><path class="cls-9" d="M241.28,213.9c8.06-.67,17.07-3.25,22.89-9.13a32.94,32.94,0,0,1-7.71,4.82A46.67,46.67,0,0,1,241,213.51c.07.13.16.26.24.39Z"/><path class="cls-9" d="M242.76,216.54c8.06-.66,17.08-3.24,22.9-9.12a33.49,33.49,0,0,1-7.71,4.82,47,47,0,0,1-15.43,3.91q.12.21.24.39Z"/><path class="cls-19" d="M241.3,206.22a6.67,6.67,0,0,1,1.51,1,4.5,4.5,0,0,1,1,1.29,2.58,2.58,0,0,1,.35,1.13,13.57,13.57,0,0,1-.05,1.45,1.88,1.88,0,0,0,0,.63c0,.06.09,0,.33-.09a2,2,0,0,1,.86-.16c.19,0,.17.26.44.49l.14.09c.38-.26.75-.54,1.12-.84.87-.92,1.62-2.65-.39-4.85.51,1.74-.54,3.38-1.95,4.61a24.73,24.73,0,0,0,.6-3c.07-1.62.09-2.55-3.8-2.83-.17.35-.31.68-.43,1l.28.13Z"/><path class="cls-20" d="M163.56,226.74a2.18,2.18,0,0,1,.53.73,2.24,2.24,0,0,1,.19.93,2.16,2.16,0,0,1-.18.88,2.34,2.34,0,0,1-.48.71,2.2,2.2,0,0,1-1.6.67h-1.64a.83.83,0,0,1-.43-.28.72.72,0,0,1-.18-.48v-4.37a2,2,0,0,1,.17-.81,1.83,1.83,0,0,1,.44-.65,2.31,2.31,0,0,1,.66-.44,2.11,2.11,0,0,1,1.61,0,2.06,2.06,0,0,1,1.11,1.11,2,2,0,0,1,.16.81,2.06,2.06,0,0,1-.36,1.19ZM161.84,225a.49.49,0,0,0-.39.17.53.53,0,0,0-.16.39v.56h.55a.54.54,0,0,0,.4-.16.54.54,0,0,0,.17-.4.54.54,0,0,0-.17-.39.51.51,0,0,0-.4-.17Zm.19,4.14a.69.69,0,0,0,.53-.22.71.71,0,0,0,0-1,.73.73,0,0,0-.53-.22h-.73v1.47Z"/><path class="cls-20" d="M167.36,223.47a2.38,2.38,0,0,1,1,.19,2.78,2.78,0,0,1,.8.55,2.7,2.7,0,0,1,.55.81,2.76,2.76,0,0,1,.23,1v2.07a3,3,0,0,1-.22,1,2.66,2.66,0,0,1-.54.82,2.51,2.51,0,0,1-.79.56,2.31,2.31,0,0,1-1,.21,2.49,2.49,0,0,1-1-.2,2.57,2.57,0,0,1-.8-.54,2.91,2.91,0,0,1-.56-.82,2.82,2.82,0,0,1-.23-1V226a2.68,2.68,0,0,1,.21-1,2.88,2.88,0,0,1,.55-.82,2.53,2.53,0,0,1,.81-.55,2.39,2.39,0,0,1,1-.21Zm0,5.67a1.1,1.1,0,0,0,.4-.08,1,1,0,0,0,.32-.22,1.13,1.13,0,0,0,.23-.34,1.07,1.07,0,0,0,.08-.41V226a1.06,1.06,0,0,0-.08-.4,1,1,0,0,0-.23-.33.87.87,0,0,0-.32-.22.92.92,0,0,0-.4-.08.91.91,0,0,0-.41.08,1,1,0,0,0-.56.55,1.06,1.06,0,0,0-.08.4v2.07a1.05,1.05,0,0,0,.3.75,1,1,0,0,0,.75.3Z"/><path class="cls-20" d="M175.39,229.45a.72.72,0,0,1,.12.57.72.72,0,0,1-.31.5.69.69,0,0,1-.57.13.8.8,0,0,1-.5-.32l-1.33-1.93-1.35,1.93a.75.75,0,0,1-.49.32.7.7,0,0,1-.57-.13.63.63,0,0,1-.21-.22,1,1,0,0,1-.11-.28.72.72,0,0,1,0-.29.77.77,0,0,1,.12-.28l1.66-2.39-1.66-2.39a.72.72,0,0,1-.13-.57.8.8,0,0,1,.32-.5.73.73,0,0,1,.57-.12.7.7,0,0,1,.49.31l1.35,1.92,1.33-1.92a.75.75,0,0,1,.5-.31.72.72,0,0,1,.57.12.8.8,0,0,1,.32.5.69.69,0,0,1-.13.57l-1.65,2.39,1.65,2.39Z"/><path class="cls-20" d="M180,229.14a.69.69,0,0,1,.53.22.73.73,0,0,1,.22.53.75.75,0,0,1-.75.77h-3a.79.79,0,0,1-.53-.22.75.75,0,0,1-.23-.55v-5.66a.76.76,0,0,1,.22-.53.71.71,0,0,1,.54-.23h3a.69.69,0,0,1,.53.22.73.73,0,0,1,.22.54.75.75,0,0,1-.75.76h-2.25v1.09h1.5a.76.76,0,0,1,.53,1.3.77.77,0,0,1-.53.22h-1.5v1.54Z"/><path class="cls-20" d="M185.8,229.36a.71.71,0,0,1,.16.26.92.92,0,0,1,0,.28.93.93,0,0,1,0,.29.67.67,0,0,1-.16.25.76.76,0,0,1-1.07,0l-1.85-1.84v1.29a.74.74,0,0,1-.22.55.76.76,0,0,1-1.07,0,.75.75,0,0,1-.23-.55V226a2.64,2.64,0,0,1,.76-1.79,2.53,2.53,0,0,1,.81-.55,2.39,2.39,0,0,1,1-.21,2.46,2.46,0,0,1,1,.2,3,3,0,0,1,.81.55,2.7,2.7,0,0,1,.55.81,2.38,2.38,0,0,1,.21,1,2.46,2.46,0,0,1-.44,1.45,2.67,2.67,0,0,1-1.17.95l1,.94ZM183.93,225a1,1,0,0,0-.74.3.86.86,0,0,0-.23.33,1.06,1.06,0,0,0-.08.4.93.93,0,0,0,.09.4,1.06,1.06,0,0,0,.22.33,1,1,0,0,0,.33.23,1,1,0,0,0,.41.09,1,1,0,0,0,1-1,.9.9,0,0,0-.08-.4,1.12,1.12,0,0,0-.22-.33,1,1,0,0,0-.34-.22.88.88,0,0,0-.39-.08Z"/><path class="cls-21" d="M173.75,214.94a27.07,27.07,0,1,1,27.07-27.07,27.08,27.08,0,0,1-27.07,27.07Z"/><path class="cls-5" d="M159.19,183.79l-.12-.13-.26-.28-.11-.39a27.78,27.78,0,0,0-3.28-7.64,3,3,0,0,1,1-3.78c4.92-4,10.14-6,15.34-4.93-4.47,2.73-8.75,7.24-11.92,14.47a12.15,12.15,0,0,1-.64,2.68Z"/><path class="cls-22" d="M160.25,180.19a28.71,28.71,0,0,0-2.95-6.34.53.53,0,0,1,.18-.68q5.9-4.84,11.51-4.59a32.07,32.07,0,0,0-8.74,11.61Z"/><path class="cls-21" d="M171.39,211.57c-.71-.4.59-3.42-6.69-3.73-1.77-.27-10.3-1.89-11.48-3.86-1.43-2.39-1.25-2.22-1.59-2.37-5.15-2.41-5.77-5.81-4.89-13.34a2.84,2.84,0,0,1,2.08-2.69c3.4-.73,9.48-1.84,10-4.32,3.68-21.41,27.54-14.85,33.42-10.46,1.72,1.28,3.64,10.84.13,13.31.67.73,1.54,15.63,5.87,19.3a25.66,25.66,0,0,0-2.88,3.6c-7.49,8.69-20.31,9.68-20.79,8.22,0,0-1.94-3-3.2-3.66Z"/><path class="cls-9" d="M164,173.88c1,.13,8.53-2.8,8.18-1.53s-13.92,14.73-14.61,16.16a20.76,20.76,0,0,0-1.92,4,12.42,12.42,0,0,0,.24,4.86,26.53,26.53,0,0,0,1.47,5.55,8.51,8.51,0,0,0,2.79,3.72,5.73,5.73,0,0,0,.71.4c-3.08-.71-6.85-1.83-7.6-3.09-1.43-2.39-1.25-2.22-1.59-2.37a10.42,10.42,0,0,1-3.09-2.08,25.91,25.91,0,0,1-1.27-3.2,20.1,20.1,0,0,1-.85-4.21c0-1.15.15-2.43.32-3.85a3.8,3.8,0,0,1,.16-.76,2.71,2.71,0,0,1,.24-.35,10.45,10.45,0,0,1,2.6-1.75l.06,0c3.47-.74,8.55-1.86,9-4.12a24.68,24.68,0,0,1,.92-3.72c2-2,3.75-3.71,4.2-3.66Z"/><path class="cls-10" d="M157.38,210.87c-2.17-1.86-14.27-15.3-13.2-24.15.12-.59.45-1.76,1-1.89,9.11-2.35,12.47-1.38,13.86-6.91,10.93-22.17,34.78-9.15,35.27-7.13,1,3.89,2.17,10.76,1.32,12.94-2.09,3.39-2.35,10.71,3.91,20.94-5-2.34-8.59-15.77-7.13-20.56,4.29-14-24.72-27.69-32.68-2.78-.52,2.46-8.42,4.95-12.94,5.58l.17,4.16a7.46,7.46,0,0,0,0,3.23h0c.51,2.57,8.26,11.08,10,12.81,3.29,3.22,4.81.36,8-1.64,4.75-3,9.43-6.27,9-5.94-5.22,4-12.6,14.76-16.56,11.34Zm-10.44-18.31a6.18,6.18,0,0,1,0-1.49v1.49Z"/><path class="cls-5" d="M169.39,212c-.17,1.92.88,5.17,2.44,5.55,11.61,2.19,20.18-1.44,29.35-11.45-.25-2.21-1.59-3.21-4-3-6.91,8-14.88,10.78-27.76,8.88Z"/><path class="cls-10" d="M153.16,185.26c.46.69.71.64.71,2.55,0,2.35-5.08,4.7-6.33,3.73l-1.39-1.82.43-3.67,6-.85.53.06Z"/><path class="cls-5" d="M180.54,170.68a2.85,2.85,0,0,1,3.06-3.85c6.85,1,11.29,3.21,17.82,7.33,3.29,2.08,2,4.32.54,6.33-5.81,8-12.43,22-13.26,17.78-1.62-8.28-2.88-11-8.16-27.59Z"/><path class="cls-22" d="M183.89,169.3c6.42.94,11.58,3.67,17.78,7.58a.68.68,0,0,1,.07,1c-3,3.44-8.54,12.43-11.6,17.37-1.26-8.46-9.87-26.44-6.25-25.91Z"/><path class="cls-5" d="M168.56,203.9l-1.44,1.44a19.46,19.46,0,0,1,2.69,6.28c.37-3.22.27-4.93-1.25-7.72Z"/><path class="cls-23" d="M158.34,183a9.45,9.45,0,0,0,1.45-.52,11.74,11.74,0,0,1,3.36-.87c1.31-.13,2.81,0,3.26.56s-.15,1.59.27,2.16,1.86.69,3.24.75,2.7.06,3.33.52.56,1.37,1.49,1.34a7.26,7.26,0,0,0,3.85-2.09,4.44,4.44,0,0,0,1-3.25c0-1-.06-1.68-.84-2.22a8.13,8.13,0,0,0-4-1c-1.68-.06-3.54.18-5.19.18a20.5,20.5,0,0,1-4-.42,8.07,8.07,0,0,0-2.19-.28,11.81,11.81,0,0,0-2.58.35,28.44,28.44,0,0,0-1.18,3.09,3.14,3.14,0,0,1-1.37,1.66Z"/><path class="cls-5" d="M174.69,185.53a2.79,2.79,0,1,1,0-5.57,2.61,2.61,0,0,1,1,.18,1.18,1.18,0,1,0,1.63,1.63,2.61,2.61,0,0,1,.18,1,2.79,2.79,0,0,1-2.78,2.79Zm1-5.36.17.07-.17-.07Zm1.46,1.36.07.16-.07-.16Z"/><path class="cls-9" d="M176.28,182.33a1.18,1.18,0,0,1-.62-2.19,2.79,2.79,0,0,1,1.63,1.63,1.2,1.2,0,0,1-1,.56Z"/><path class="cls-5" d="M161.18,183.63a2.79,2.79,0,0,1,0-5.57,2.93,2.93,0,0,1,1,.18,1.18,1.18,0,0,0,.62,2.19,1.19,1.19,0,0,0,1-.56,2.63,2.63,0,0,1,.18,1,2.79,2.79,0,0,1-2.78,2.78Zm1-5.36.17.07-.17-.07Zm1.45,1.36a.87.87,0,0,1,.07.17.87.87,0,0,0-.07-.17Z"/><path class="cls-9" d="M162.78,180.43a1.18,1.18,0,0,1-.62-2.19,2.77,2.77,0,0,1,1.62,1.63,1.19,1.19,0,0,1-1,.56Z"/><circle class="cls-24" cx="283.12" cy="111.25" r="23.1"/><circle class="cls-24" cx="64.46" cy="111.25" r="23.1"/></g></g></svg>