<svg xmlns="http://www.w3.org/2000/svg" viewBox="0 0 485.12 446.87"><defs><style>.cls-1,.cls-3{fill:none;stroke-width:0.75px;}.cls-1{stroke:#727171;}.cls-1,.cls-15,.cls-2,.cls-3,.cls-4,.cls-5,.cls-6{stroke-miterlimit:10;}.cls-2{fill:#393832;stroke:#22ac38;}.cls-15,.cls-2,.cls-4,.cls-5,.cls-6{stroke-width:2px;}.cls-3{stroke:#dcdddd;}.cls-4{fill:#3f3832;stroke:#e0a012;}.cls-5{fill:#353338;stroke:#003e97;}.cls-6{fill:#3f3736;stroke:#ea5514;}.cls-7{fill:#d0464b;}.cls-8{fill:#b32d3a;}.cls-9{fill:#e25858;}.cls-10{isolation:isolate;}.cls-11{fill:#282828;}.cls-12{fill:#686969;}.cls-13{fill:#504e4d;}.cls-14{fill:#3d3d3d;}.cls-15{fill:#37383a;stroke:#009cdc;}</style></defs><title>networklock-dark</title><g id="图层_2" data-name="图层 2"><g id="图层_1-2" data-name="图层 1"><line class="cls-1" x1="485.12" y1="100.6" x2="417.77" y2="100.6"/><line class="cls-1" x1="485.12" y1="175.04" x2="417.77" y2="175.04"/><line class="cls-1" x1="485.12" y1="249.47" x2="417.77" y2="249.47"/><line class="cls-1" x1="67.35" y1="101.6" x2="154.95" y2="50.99"/><line class="cls-1" x1="67.35" y1="101.6" x2="154.95" y2="134.36"/><line class="cls-1" x1="154.95" y1="217.72" x2="67.35" y2="101.6"/><line class="cls-1" x1="154.95" y1="301.08" x2="67.35" y2="101.6"/><line class="cls-1" x1="67.35" y1="176.04" x2="154.95" y2="50.99"/><line class="cls-1" x1="154.95" y1="134.36" x2="67.35" y2="176.04"/><line class="cls-1" x1="154.95" y1="217.72" x2="67.35" y2="176.04"/><line class="cls-1" x1="154.95" y1="301.08" x2="67.35" y2="176.04"/><line class="cls-1" x1="67.35" y1="250.47" x2="154.95" y2="50.99"/><line class="cls-1" x1="154.95" y1="134.36" x2="67.35" y2="250.47"/><line class="cls-1" x1="154.95" y1="217.72" x2="67.35" y2="250.47"/><line class="cls-1" x1="154.95" y1="301.08" x2="67.35" y2="250.47"/><line class="cls-1" x1="154.95" y1="50.99" x2="242.76" y2="95.6"/><line class="cls-1" x1="242.76" y1="15.17" x2="154.95" y2="50.99"/><line class="cls-1" x1="242.76" y1="176.04" x2="154.95" y2="50.99"/><line class="cls-1" x1="242.76" y1="256.47" x2="154.95" y2="50.99"/><line class="cls-1" x1="154.95" y1="134.36" x2="242.76" y2="15.17"/><line class="cls-1" x1="242.76" y1="95.6" x2="154.95" y2="134.36"/><line class="cls-1" x1="242.76" y1="176.04" x2="154.95" y2="134.36"/><line class="cls-1" x1="242.76" y1="256.47" x2="154.95" y2="134.36"/><line class="cls-1" x1="154.95" y1="217.72" x2="242.76" y2="15.17"/><line class="cls-1" x1="242.76" y1="95.6" x2="154.95" y2="217.72"/><line class="cls-1" x1="242.76" y1="176.04" x2="154.95" y2="217.72"/><line class="cls-1" x1="242.76" y1="256.47" x2="154.95" y2="217.72"/><line class="cls-1" x1="154.95" y1="301.08" x2="242.76" y2="15.17"/><line class="cls-1" x1="242.76" y1="95.6" x2="154.95" y2="301.08"/><line class="cls-1" x1="242.76" y1="176.04" x2="154.95" y2="301.08"/><line class="cls-1" x1="242.76" y1="256.47" x2="154.95" y2="301.08"/><line class="cls-1" x1="242.76" y1="15.17" x2="330.16" y2="50.99"/><line class="cls-1" x1="242.76" y1="95.6" x2="330.16" y2="50.99"/><line class="cls-1" x1="242.76" y1="176.04" x2="330.16" y2="50.99"/><line class="cls-1" x1="242.76" y1="256.47" x2="330.16" y2="50.99"/><line class="cls-1" x1="242.76" y1="336.9" x2="330.16" y2="50.99"/><line class="cls-1" x1="330.16" y1="134.36" x2="242.76" y2="15.17"/><line class="cls-1" x1="330.16" y1="301.08" x2="242.76" y2="15.17"/><line class="cls-1" x1="242.76" y1="95.6" x2="330.16" y2="134.36"/><line class="cls-1" x1="242.76" y1="176.04" x2="330.16" y2="134.36"/><line class="cls-1" x1="242.76" y1="256.47" x2="330.16" y2="134.36"/><line class="cls-1" x1="242.76" y1="336.9" x2="330.16" y2="134.36"/><line class="cls-1" x1="330.16" y1="217.72" x2="242.76" y2="15.17"/><line class="cls-1" x1="242.76" y1="95.6" x2="330.16" y2="217.72"/><line class="cls-1" x1="330.16" y1="301.08" x2="242.76" y2="95.6"/><line class="cls-1" x1="330.16" y1="217.72" x2="242.76" y2="176.04"/><line class="cls-1" x1="330.16" y1="301.08" x2="242.76" y2="176.04"/><line class="cls-1" x1="242.76" y1="256.47" x2="330.16" y2="217.72"/><line class="cls-1" x1="330.16" y1="134.36" x2="242.76" y2="256.47"/><line class="cls-1" x1="330.16" y1="301.08" x2="242.76" y2="256.47"/><line class="cls-1" x1="242.76" y1="336.9" x2="330.16" y2="301.08"/><line class="cls-1" x1="330.16" y1="217.72" x2="242.76" y2="336.9"/><line class="cls-1" x1="330.16" y1="217.72" x2="417.77" y2="181.21"/><line class="cls-1" x1="417.77" y1="106.04" x2="330.16" y2="217.72"/><line class="cls-1" x1="417.77" y1="256.47" x2="330.16" y2="217.72"/><line class="cls-1" x1="330.16" y1="301.08" x2="417.77" y2="256.47"/><line class="cls-1" x1="330.16" y1="301.08" x2="417.77" y2="181.21"/><line class="cls-1" x1="417.77" y1="106.04" x2="330.16" y2="301.08"/><line class="cls-1" x1="330.16" y1="131.4" x2="417.77" y2="106.04"/><line class="cls-1" x1="330.16" y1="50.99" x2="417.77" y2="106.04"/><line class="cls-1" x1="417.77" y1="181.21" x2="330.16" y2="131.4"/><line class="cls-1" x1="417.77" y1="256.47" x2="331.14" y2="134.36"/><line class="cls-1" x1="330.16" y1="50.99" x2="417.77" y2="181.21"/><line class="cls-1" x1="417.77" y1="256.47" x2="330.16" y2="50.99"/><line class="cls-1" x1="67.35" y1="101.6" y2="101.6"/><line class="cls-1" x1="67.35" y1="176.04" y2="176.04"/><line class="cls-1" x1="67.35" y1="250.47" y2="250.47"/><polygon class="cls-2" points="250.95 1 234.58 1 226.4 15.17 234.58 29.35 250.95 29.35 259.13 15.17 250.95 1"/><polygon class="cls-2" points="250.95 81.43 234.58 81.43 226.4 95.61 234.58 109.78 250.95 109.78 259.13 95.61 250.95 81.43"/><polygon class="cls-2" points="250.95 242.29 234.58 242.29 226.4 256.47 234.58 270.64 250.95 270.64 259.13 256.47 250.95 242.29"/><polygon class="cls-2" points="250.95 161.86 234.58 161.86 226.4 176.04 234.58 190.21 250.95 190.21 259.13 176.04 250.95 161.86"/><line class="cls-3" x1="330.16" y1="217.72" x2="330.16" y2="217.72"/><rect class="cls-4" x="315.99" y="36.82" width="28.35" height="28.35"/><rect class="cls-4" x="315.99" y="120.18" width="28.35" height="28.35"/><rect class="cls-4" x="315.99" y="203.54" width="28.35" height="28.35"/><rect class="cls-4" x="315.99" y="286.91" width="28.35" height="28.35"/><circle class="cls-5" cx="67.35" cy="101.6" r="14.17"/><circle class="cls-5" cx="67.35" cy="250.47" r="14.17"/><circle class="cls-5" cx="67.35" cy="176.04" r="14.17"/><polygon class="cls-2" points="250.95 322.73 234.58 322.73 226.4 336.9 234.58 351.07 250.95 351.07 259.13 336.9 250.95 322.73"/><polygon class="cls-6" points="417.77 87.43 401.4 115.78 434.13 115.78 417.77 87.43"/><polygon class="cls-6" points="417.77 161.86 401.4 190.21 434.13 190.21 417.77 161.86"/><polygon class="cls-6" points="417.77 236.3 401.4 264.64 434.13 264.64 417.77 236.3"/><path class="cls-7" d="M263.61,381.23a11.66,11.66,0,0,1,5.29,9.17l-.14,52.72c0,3.36-2.38,4.71-5.34,3l-60-34.62a11.66,11.66,0,0,1-5.29-9.14l.14-52.72c0-3.36,2.41-4.73,5.34-3Z"/><path class="cls-8" d="M286.69,373.5l-19.63,11.24a11,11,0,0,1,1.83,5.64l-.11,52.73a3.73,3.73,0,0,1-1.54,3.38l19.5-11.34c1-.54,1.58-1.73,1.58-3.42l.15-52.69A11,11,0,0,0,286.69,373.5Z"/><path class="cls-9" d="M283.16,369.89l-60-34.65a3.68,3.68,0,0,0-3.77-.35l-19.58,11.34a3.82,3.82,0,0,1,3.77.39l60,34.61a10.49,10.49,0,0,1,3.43,3.51l19.63-11.24A10.62,10.62,0,0,0,283.16,369.89Z"/><g class="cls-10"><path class="cls-11" d="M232,309.8c-3.88,2.23-6.26,7-6.26,13.76l-.1,22.17-7.3,4.19.11-22.17c0-6.72,2.43-11.48,6.25-13.7Z"/><path class="cls-12" d="M275.85,352.52l-.05,22.17-7.29,4.24.05-22.17c.05-18.25-12.77-40.49-28.65-49.64-8-4.66-15.26-5.07-20.48-2l7.29-4.24c5.23-3.05,12.47-2.64,20.48,2C263.08,312,275.9,334.27,275.85,352.52Z"/><path class="cls-13" d="M239.92,307.1c15.85,9.15,28.71,31.4,28.66,49.65l-.09,22.16-7.33-4.23.09-22.16c0-13.59-9.54-30.17-21.36-37s-21.46-1.33-21.49,12.25l-.1,22.17-7.36-4.25.09-22.17C211.08,305.27,224,297.93,239.92,307.1Z"/></g><path class="cls-14" d="M231.47,383.45a17,17,0,0,1,7.73,13.43c0,3.58-1.84,5.67-4.51,5.49l0,12.83-6.54-3.78,0-12.82a16.85,16.85,0,0,1-4.47-10.68C223.71,383,227.18,381,231.47,383.45Z"/><line class="cls-1" x1="232.81" y1="323.39" x2="154.95" y2="217.72"/><line class="cls-1" x1="238.11" y1="321.74" x2="154.95" y2="50.99"/><line class="cls-1" x1="236.08" y1="321.49" x2="154.95" y2="134.36"/><line class="cls-1" x1="228.41" y1="331.04" x2="154.95" y2="301.08"/><polygon class="cls-15" points="154.95 36.82 140.37 47.65 145.94 65.17 163.97 65.17 169.54 47.65 154.95 36.82"/><polygon class="cls-15" points="154.95 203.54 140.37 214.37 145.94 231.89 163.97 231.89 169.54 214.37 154.95 203.54"/><polygon class="cls-15" points="154.95 120.18 140.37 131.01 145.94 148.53 163.97 148.53 169.54 131.01 154.95 120.18"/><polygon class="cls-15" points="154.95 286.91 140.37 297.73 145.94 315.25 163.97 315.25 169.54 297.73 154.95 286.91"/></g></g></svg>