<svg xmlns="http://www.w3.org/2000/svg" viewBox="0 0 369.12 164.87"><defs><style>.cls-1{fill:#231815;}</style></defs><title>post-sep</title><g id="图层_2" data-name="图层 2"><g id="图层_1-2" data-name="图层 1"><path class="cls-1" d="M91.81,164.87A113.57,113.57,0,0,0,121.26,161c30.07-7.93,56.41-22.79,79.15-43.83C213,105.58,224.84,93.25,237,81.2,256,62.35,277.67,48.36,304.31,43c1.16-.23,2.89-1.28,3-2.14a5,5,0,0,0-1.61-3.71c-3.11-2.87-7.06-4.06-11.16-4.64-10.7-1.51-20.54,1.37-30,6-11.71,5.69-21.18,14.34-30.6,23.08-15.27,14.17-30.33,28.59-46,42.26-18.12,15.77-37.85,29.26-60.31,38.3-20.18,8.12-40.95,11.22-62.55,7-29-5.62-59.13-34.81-53.78-75C13.46,57.56,21,44,35.12,34.54,47,26.54,60.27,24,74.38,24.87c16.17,1,30.31,6.56,41.29,18.89,4,4.54,8,9.23,11.85,13.92,2.34,2.82,4.4,3.59,6.68,2.22s2.89-3.73.92-6.89c-2.88-4.62-5.67-9.4-9.27-13.42C105,16.28,67.3,8.85,37.72,22.45,16.83,32,3.88,48.21.71,71.28c-2.82,20.48,2.88,39,14.84,55.54C34.29,152.68,60.35,164.33,91.81,164.87Zm277.31-92c-.32-2.75-.61-7.21-1.35-11.59C362.19,28.16,332.85,2.13,299.39.17c-20.49-1.21-39,4.16-56,15.51-16.14,10.81-29.79,24.43-43.51,38-15.65,15.48-31.13,31.15-47.18,46.2-12,11.23-25.3,20.8-40.58,27.26-17.53,7.41-35.1,8.29-52.54-.14C35.45,115.33,28,88.8,46.53,67.79a6.06,6.06,0,0,0,1.42-2,14.17,14.17,0,0,0,.28-3c-1,0-2.28-.32-3,.14A19.42,19.42,0,0,0,41,66.38C29,79,27.36,99.81,38.15,114.79,52,134,71.55,140.52,94.5,137.58c15-1.92,28.3-8.46,41-16.34C155,109.11,172,93.87,188.48,78c14.1-13.55,27.74-27.6,42.21-40.75,19.64-17.84,43.08-26.36,69.68-25.4,12.44.45,24,4,33.82,12.08C347.77,35.12,353,50.23,353.42,67.15c.46,17.14-5,32.65-15.19,46.33C323,134,302.75,145.73,276.89,146.64c-17.47.61-33.32-4.87-48-13.95-4.24-2.62-8.13-5.82-12.34-8.51a4.47,4.47,0,0,0-3.89-.14c-.62.35-.85,2.61-.35,3.53a27.16,27.16,0,0,0,4.44,6.14c7,7.18,15.52,12.29,24.59,16.43,16.71,7.65,34.17,11.18,52.55,8.74,20-2.65,36.73-11.87,50.62-26.22C360.11,116.52,368.66,97.24,369.12,72.87Z"/></g></g></svg>