<svg version="1" xmlns="http://www.w3.org/2000/svg" width="682.667" height="682.667" viewBox="0 0 512.000000 512.000000"><path d="M39.7 1.6C29.8 4 23 7.8 15.4 15.4 7.7 23.2 4 29.8 1.5 40.2c-2.2 9.5-2.2 422.1 0 431.6 2.5 10.4 6.2 17 13.9 24.8 7.8 7.7 14.4 11.4 24.8 13.9 9.5 2.2 422.1 2.2 431.6 0 10.4-2.5 17-6.2 24.8-13.9 7.7-7.8 11.4-14.4 13.9-24.8 2.2-9.5 2.2-422.1 0-431.6-2.5-10.4-6.2-17-13.9-24.8-7.8-7.7-14.4-11.4-24.8-13.9-9.2-2.2-423.1-2.1-432.1.1zM135 121.9v5.9l-11.7.4c-13.8.5-18.3 2.1-21 7-1.7 3.1-1.8 9.1-1.8 118.3 0 113.8 0 115 2 118.5 4.1 7.1 3.6 7 55 7 50.8 0 52.1-.1 64.5-6.3 9.4-4.6 21.9-17.3 24.8-25 1.2-3.2 2.2-6.5 2.2-7.4 0-1.3.8-1.4 4.6-.8 6.4.9 7.6 1.5 7.1 3.4-.2.9-3.2 13.2-6.8 27.3l-6.4 25.8H33v-11.8l11.9-.3c10.2-.3 12.4-.7 14.8-2.5 6.2-4.6 5.8 3.2 5.8-125.4 0-111.7-.1-117.7-1.8-120.8-2.6-4.8-7.3-6.4-19.9-7l-10.8-.5V116h102v5.9zm186 .1v6h-4.3c-4.7 0-6.7 1.3-6.7 4.3 0 2.1 54 117.7 55 117.7.8 0 54.7-112.7 55.5-116.1 1.1-4.4-2.3-5.9-12.7-5.9H399v-12l40.3.2 40.2.3v11l-9 .6c-4.9.3-10.9 1.1-13.2 1.7-6.2 1.8-16.2 9-20.6 14.7-2.1 2.7-16.6 30.5-32.3 61.7L376 263l.2 56.4c.3 55.5.3 56.5 2.4 59.3 3.4 4.7 6.8 5.7 19.7 6.1l11.7.4V396H308v-10.7l11.3-.5c12.7-.6 15.8-1.7 19-6.7 2.2-3.6 2.2-4 2.5-50.8l.3-47.2-32-63.8c-21.5-42.8-33.6-65.9-37-70.3-9.5-12.5-19.5-17.9-33.3-18H231v-12h90v6z"/></svg>